<svg xmlns="http://www.w3.org/2000/svg" viewBox="0 -0.5 512 512" shape-rendering="crispEdges">
<metadata>Made with Pixels to Svg https://codepen.io/shshaw/pen/XbxvNj</metadata>
<path stroke="rgba(0,0,0,0.01568627450980392)" d="M252 11h1M229 45h1M251 67h1M206 92h1M227 116h1M182 141h1M203 165h1M114 172h1M40 183h1M172 193h1M377 198h1M384 199h1M391 200h1M496 222h1M444 232h1M30 238h1M91 256h1M443 274h1M396 279h1M125 289h1M95 301h1M366 342h1M397 350h1M239 399h1M106 403h1M222 408h1M133 419h1M253 425h1M325 426h1M381 428h1M348 438h1M313 453h1M380 488h1M93 490h1M119 496h1" />
<path stroke="rgba(0,0,0,0.1450980392156863)" d="M253 11h1M241 21h1M297 77h1M274 96h1M194 117h1M215 140h1M115 172h1M41 183h1M7 189h1M171 193h1M378 198h1M51 258h1M409 307h1M164 439h1M359 444h1M211 447h1" />
<path stroke="rgba(0,0,0,0.28627450980392155)" d="M254 11h1M178 150h1M163 165h1M379 198h1M465 212h1M473 244h1M110 381h1M236 401h1M287 439h1M128 447h1M414 449h1M95 470h1M398 497h1" />
<path stroke="rgba(0,0,0,0.4)" d="M255 11h1M202 166h1M36 184h1M102 203h1M443 207h1M115 352h1M142 363h1M324 426h1M100 441h1M118 496h1" />
<path stroke="rgba(0,0,0,0.2980392156862745)" d="M256 11h1M202 101h1M207 156h1M306 160h1M345 164h1M116 172h1M170 193h1M358 195h1M109 387h1M407 409h1M222 441h1M374 452h1M94 476h1" />
<path stroke="rgba(0,0,0,0.15294117647058825)" d="M257 11h1M242 19h1M218 68h1M295 73h1M276 100h1M346 164h1M1 195h1M357 195h1M364 196h1M70 208h1M103 268h1M379 296h1M146 310h1M404 391h1M107 398h1M313 420h1M132 424h1M181 430h1M385 450h1M325 459h1M177 465h1" />
<path stroke="rgba(0,0,0,0.0196078431372549)" d="M258 11h1M230 43h1M250 69h1M183 139h1M5 190h1M363 196h1M370 197h1M71 208h1M497 221h1M57 223h1M443 233h1M29 237h1M62 269h1M444 273h1M395 280h1M279 402h1M377 405h1M134 413h1M408 413h1M302 414h1M269 430h1M236 434h1M156 443h1M219 443h1M139 452h1M336 465h1M419 476h1M101 499h1M402 499h1" />
<path stroke="rgba(0,0,0,0.023529411764705882)" d="M249 12h1M207 90h1M226 118h1M339 161h1M347 164h1M202 167h1M141 168h1M67 179h1M328 191h1M349 194h1M356 195h1M511 195h1M145 197h1M498 220h1M58 224h1M442 234h1M92 257h1M61 268h1M445 272h1M126 290h1M94 300h1M393 323h1M135 407h1M105 409h1M173 434h1M292 442h1M202 452h1M185 461h1M420 488h1M419 491h1" />
<path stroke="rgba(0,0,0,0.37254901960784315)" d="M250 12h1M229 46h1M464 181h1M45 212h1M460 217h1M394 335h1M369 357h1M384 443h1M186 460h1M420 485h1M112 499h1" />
<path stroke="rgba(0,0,0,0.8)" d="M251 12h1M226 53h1M307 161h1M153 167h1M461 181h1M62 229h1M452 264h1M283 405h1M129 438h1M138 485h1M399 497h1" />
<path stroke="rgba(0,0,0,0.984313725490196)" d="M252 12h1M241 23h1M255 57h1M298 81h1M299 83h1M300 85h1M271 88h1M239 89h1M272 90h1M273 92h1M194 119h1M215 138h1M114 173h1M172 192h1M377 197h1M384 198h1M71 207h1M463 215h1M475 241h1M77 244h1M43 249h1M415 262h1M111 277h1M423 292h1M108 312h1M400 373h1M374 382h1M134 407h1M106 409h1M228 437h1M164 440h1M359 445h1M211 446h1M302 446h1M147 449h1M194 455h1M382 457h1M369 481h1M95 492h1M409 498h1" />
<path stroke="#000000" d="M253 12h5M250 13h11M248 14h15M247 15h17M246 16h19M245 17h21M244 18h23M244 19h24M243 20h25M243 21h26M242 22h27M242 23h28M241 24h29M241 25h30M240 26h31M240 27h32M239 28h33M239 29h34M238 30h35M238 31h36M237 32h37M237 33h38M236 34h39M236 35h40M235 36h41M235 37h42M234 38h43M234 39h44M233 40h45M233 41h46M232 42h47M232 43h48M231 44h49M231 45h50M230 46h51M230 47h52M229 48h53M229 49h54M228 50h55M228 51h56M227 52h57M227 53h58M226 54h59M226 55h60M225 56h61M225 57h30M256 57h30M224 58h31M257 58h30M224 59h30M257 59h30M223 60h31M258 60h30M223 61h30M258 61h30M222 62h31M259 62h30M222 63h30M259 63h30M221 64h31M260 64h30M221 65h30M260 65h30M221 66h30M261 66h30M220 67h30M261 67h30M220 68h30M262 68h30M219 69h30M262 69h30M219 70h30M263 70h30M218 71h30M263 71h30M218 72h30M264 72h30M217 73h30M264 73h30M217 74h30M265 74h30M216 75h30M265 75h30M216 76h30M266 76h30M215 77h30M266 77h30M215 78h30M267 78h30M214 79h30M267 79h30M214 80h30M268 80h30M213 81h30M268 81h30M213 82h30M269 82h30M212 83h30M269 83h30M212 84h30M270 84h30M211 85h30M270 85h30M211 86h30M271 86h30M210 87h30M271 87h30M210 88h30M272 88h30M209 89h30M272 89h30M209 90h30M273 90h30M208 91h30M273 91h30M208 92h30M274 92h30M207 93h30M274 93h30M207 94h30M275 94h30M206 95h30M275 95h30M206 96h30M276 96h30M205 97h31M276 97h30M205 98h30M277 98h30M204 99h31M277 99h30M204 100h30M278 100h30M203 101h31M278 101h30M203 102h30M279 102h30M202 103h31M279 103h30M202 104h30M280 104h30M201 105h31M280 105h30M201 106h30M281 106h30M200 107h31M281 107h30M200 108h30M282 108h30M199 109h31M282 109h30M199 110h30M283 110h30M198 111h31M283 111h30M198 112h30M284 112h30M198 113h30M284 113h30M197 114h30M285 114h30M197 115h30M285 115h30M196 116h30M286 116h30M196 117h30M286 117h30M195 118h30M286 118h31M195 119h30M287 119h30M194 120h30M287 120h31M194 121h30M288 121h30M193 122h30M288 122h31M193 123h30M289 123h30M192 124h30M289 124h31M192 125h30M290 125h30M191 126h30M290 126h31M191 127h30M291 127h30M190 128h30M291 128h31M190 129h30M292 129h30M189 130h30M292 130h31M189 131h30M293 131h30M188 132h30M293 132h31M188 133h30M294 133h30M187 134h30M294 134h31M187 135h30M295 135h30M186 136h30M295 136h31M186 137h30M296 137h30M185 138h30M296 138h31M185 139h30M297 139h30M184 140h30M297 140h31M184 141h30M298 141h30M183 142h30M298 142h31M183 143h30M299 143h30M182 144h30M299 144h31M182 145h30M300 145h30M181 146h31M300 146h31M181 147h30M301 147h30M180 148h31M301 148h31M180 149h30M302 149h30M179 150h31M302 150h31M179 151h30M303 151h30M178 152h31M303 152h31M178 153h30M304 153h30M177 154h31M304 154h31M177 155h30M305 155h30M176 156h31M305 156h31M176 157h30M306 157h30M175 158h31M306 158h31M175 159h30M307 159h30M175 160h30M307 160h31M174 161h30M308 161h30M174 162h30M308 162h31M173 163h30M309 163h30M173 164h30M309 164h31M169 165h33M310 165h37M162 166h40M310 166h44M155 167h46M311 167h50M148 168h53M311 168h57M142 169h58M312 169h63M135 170h65M312 170h70M128 171h71M313 171h77M121 172h78M313 172h84M115 173h83M314 173h90M108 174h90M314 174h97M101 175h96M315 175h103M95 176h102M315 176h110M88 177h108M316 177h116M81 178h115M316 178h123M74 179h121M317 179h129M68 180h127M317 180h136M61 181h133M318 181h142M54 182h140M318 182h149M48 183h145M319 183h155M41 184h152M320 184h161M34 185h158M320 185h168M27 186h164M321 186h174M21 187h169M322 187h179M14 188h175M324 188h180M10 189h177M326 189h179M8 190h176M329 190h178M6 191h173M336 191h172M5 192h167M343 192h165M4 193h161M350 193h159M3 194h156M357 194h153M3 195h149M364 195h146M2 196h143M371 196h140M2 197h137M378 197h133M1 198h131M385 198h126M1 199h124M392 199h119M1 200h117M399 200h112M1 201h111M406 201h105M1 202h104M413 202h98M1 203h97M420 203h91M1 204h90M427 204h84M1 205h84M434 205h76M1 206h77M441 206h69M2 207h69M448 207h61M2 208h63M455 208h54M3 209h55M462 209h46M4 210h47M468 210h39M4 211h40M468 211h38M5 212h39M467 212h38M6 213h39M466 213h38M7 214h39M465 214h38M9 215h39M464 215h38M10 216h39M463 216h38M11 217h39M462 217h38M12 218h39M461 218h38M13 219h39M460 219h38M14 220h39M458 220h39M15 221h39M457 221h39M16 222h39M456 222h39M17 223h39M455 223h39M18 224h39M454 224h39M19 225h39M453 225h39M20 226h39M452 226h39M21 227h39M451 227h39M22 228h39M450 228h39M23 229h39M449 229h39M24 230h39M448 230h39M25 231h39M447 231h39M26 232h39M446 232h39M27 233h39M445 233h39M28 234h39M444 234h39M29 235h39M443 235h39M30 236h39M442 236h38M31 237h39M441 237h38M32 238h39M440 238h38M33 239h39M439 239h38M34 240h39M438 240h38M35 241h39M437 241h38M36 242h39M436 242h38M37 243h39M435 243h38M38 244h39M434 244h38M39 245h39M433 245h38M41 246h38M432 246h38M42 247h38M431 247h38M43 248h39M430 248h38M44 249h39M429 249h38M45 250h39M428 250h38M46 251h39M427 251h38M47 252h39M426 252h38M48 253h39M425 253h38M49 254h39M424 254h38M50 255h39M423 255h38M51 256h39M422 256h38M52 257h39M421 257h38M53 258h39M420 258h38M54 259h39M419 259h38M55 260h39M418 260h38M56 261h39M417 261h38M57 262h39M416 262h38M58 263h39M415 263h38M59 264h39M414 264h38M60 265h39M413 265h38M61 266h39M412 266h38M62 267h39M410 267h39M63 268h39M409 268h39M64 269h39M408 269h39M65 270h39M407 270h39M66 271h39M406 271h39M67 272h39M405 272h39M68 273h39M404 273h39M69 274h39M403 274h39M70 275h39M402 275h39M71 276h39M401 276h39M72 277h39M400 277h39M74 278h38M399 278h39M75 279h38M398 279h39M76 280h38M397 280h39M77 281h39M396 281h39M78 282h39M395 282h39M79 283h39M394 283h39M80 284h39M393 284h39M81 285h39M392 285h39M82 286h39M391 286h39M83 287h39M390 287h39M84 288h39M389 288h38M85 289h39M388 289h38M86 290h39M387 290h38M87 291h39M386 291h38M88 292h39M385 292h38M89 293h39M384 293h38M90 294h39M383 294h38M91 295h39M382 295h38M92 296h39M381 296h38M93 297h39M380 297h38M94 298h39M379 298h38M95 299h39M378 299h38M96 300h39M377 300h38M97 301h39M376 301h38M98 302h39M375 302h38M99 303h39M374 303h38M100 304h39M373 304h38M101 305h39M372 305h38M102 306h39M371 306h38M103 307h39M370 307h38M104 308h39M369 308h38M106 309h38M368 309h38M107 310h38M367 310h38M108 311h38M366 311h38M109 312h38M365 312h38M110 313h37M365 313h37M111 314h37M364 314h37M112 315h36M364 315h36M113 316h36M364 316h35M114 317h35M364 317h34M115 318h34M364 318h33M116 319h33M364 319h32M117 320h32M364 320h31M118 321h31M364 321h30M119 322h30M364 322h29M120 323h29M364 323h28M121 324h27M364 324h28M121 325h27M365 325h27M121 326h27M365 326h27M120 327h28M365 327h27M120 328h28M365 328h28M120 329h28M365 329h28M120 330h27M365 330h28M120 331h27M366 331h27M120 332h27M366 332h27M119 333h28M366 333h27M119 334h28M366 334h28M119 335h28M366 335h28M119 336h27M367 336h27M119 337h27M367 337h27M119 338h27M367 338h27M118 339h28M367 339h28M118 340h28M367 340h28M118 341h28M367 341h28M118 342h27M368 342h27M118 343h27M368 343h27M117 344h28M368 344h27M117 345h28M368 345h28M117 346h28M368 346h28M117 347h28M368 347h28M117 348h27M369 348h27M117 349h27M369 349h27M116 350h28M369 350h27M116 351h28M369 351h28M116 352h28M369 352h28M116 353h28M369 353h28M116 354h27M370 354h27M116 355h27M370 355h27M115 356h28M370 356h27M115 357h28M370 357h28M115 358h28M370 358h28M115 359h28M371 359h27M115 360h27M371 360h27M115 361h27M371 361h27M114 362h28M371 362h28M114 363h28M371 363h28M114 364h28M371 364h28M114 365h28M372 365h27M114 366h27M372 366h27M114 367h27M372 367h27M113 368h28M372 368h28M113 369h28M372 369h28M113 370h28M372 370h28M113 371h28M373 371h27M113 372h27M373 372h27M113 373h27M373 373h27M112 374h28M373 374h28M112 375h28M373 375h28M112 376h28M373 376h28M112 377h28M374 377h27M112 378h27M374 378h27M112 379h27M374 379h28M111 380h28M374 380h28M111 381h28M374 381h28M111 382h28M375 382h27M111 383h27M375 383h27M111 384h27M375 384h27M111 385h27M375 385h28M110 386h28M375 386h28M110 387h28M375 387h28M110 388h28M376 388h27M110 389h27M376 389h27M110 390h27M376 390h27M110 391h27M376 391h28M109 392h28M376 392h28M109 393h28M376 393h28M109 394h28M252 394h9M377 394h27M109 395h27M250 395h14M377 395h27M109 396h27M248 396h18M377 396h27M109 397h27M246 397h21M377 397h28M108 398h28M244 398h25M377 398h28M108 399h28M242 399h29M378 399h27M108 400h28M240 400h33M378 400h27M108 401h27M238 401h37M378 401h27M108 402h27M236 402h41M378 402h28M108 403h27M234 403h45M378 403h28M107 404h28M233 404h48M378 404h28M107 405h28M231 405h52M379 405h27M107 406h28M229 406h56M379 406h27M107 407h27M227 407h60M379 407h27M107 408h27M225 408h63M379 408h28M107 409h27M223 409h67M379 409h28M106 410h28M221 410h71M379 410h28M106 411h28M219 411h75M380 411h27M106 412h28M217 412h79M380 412h27M106 413h27M216 413h82M380 413h27M106 414h27M214 414h86M380 414h28M106 415h27M212 415h90M380 415h28M105 416h28M210 416h94M380 416h28M105 417h28M208 417h98M381 417h27M105 418h28M206 418h102M381 418h27M105 419h27M204 419h106M381 419h27M105 420h27M202 420h109M381 420h28M105 421h27M200 421h113M381 421h28M104 422h28M199 422h116M382 422h27M104 423h28M197 423h58M259 423h58M382 423h27M104 424h28M195 424h58M261 424h58M382 424h27M104 425h27M193 425h58M262 425h59M382 425h28M104 426h27M191 426h58M264 426h59M382 426h28M104 427h27M189 427h58M266 427h59M382 427h28M103 428h28M187 428h58M268 428h59M383 428h27M103 429h28M185 429h58M270 429h59M383 429h27M103 430h28M184 430h58M272 430h59M383 430h27M103 431h27M182 431h58M274 431h59M383 431h28M103 432h27M180 432h58M276 432h58M383 432h28M102 433h28M178 433h58M278 433h58M383 433h28M102 434h28M176 434h58M280 434h58M384 434h27M102 435h28M174 435h58M282 435h58M384 435h27M102 436h28M172 436h58M284 436h58M384 436h27M102 437h27M170 437h58M285 437h59M384 437h28M102 438h27M168 438h58M287 438h59M384 438h28M101 439h28M167 439h58M289 439h59M384 439h28M101 440h28M165 440h58M291 440h59M385 440h27M101 441h28M163 441h58M293 441h59M385 441h27M101 442h28M161 442h58M295 442h59M385 442h28M101 443h27M159 443h58M297 443h59M385 443h28M101 444h27M157 444h58M299 444h58M385 444h28M100 445h28M155 445h58M301 445h58M386 445h27M100 446h28M153 446h58M303 446h58M386 446h27M100 447h28M151 447h58M305 447h58M386 447h27M100 448h28M150 448h58M306 448h59M386 448h28M100 449h27M148 449h58M308 449h59M386 449h28M100 450h27M146 450h58M310 450h59M386 450h28M99 451h28M144 451h58M312 451h59M387 451h27M99 452h28M142 452h58M314 452h59M387 452h27M99 453h28M140 453h58M316 453h59M387 453h27M99 454h28M138 454h58M318 454h59M387 454h28M99 455h27M136 455h58M320 455h59M387 455h28M99 456h27M134 456h58M322 456h58M387 456h28M98 457h28M133 457h58M324 457h58M388 457h27M98 458h28M131 458h58M326 458h58M388 458h27M98 459h28M129 459h58M328 459h58M388 459h27M98 460h28M127 460h58M329 460h87M98 461h85M331 461h85M98 462h83M333 462h83M97 463h82M335 463h81M97 464h80M337 464h79M97 465h78M339 465h78M97 466h77M341 466h76M97 467h75M343 467h74M97 468h73M345 468h72M96 469h72M347 469h70M96 470h70M349 470h68M96 471h68M350 471h68M96 472h66M352 472h66M96 473h64M354 473h64M96 474h63M356 474h62M95 475h62M358 475h60M95 476h60M360 476h58M95 477h58M362 477h57M95 478h56M364 478h55M95 479h54M366 479h53M95 480h52M368 480h51M94 481h51M370 481h49M94 482h49M372 482h47M94 483h48M373 483h47M94 484h46M375 484h45M94 485h44M377 485h43M94 486h42M379 486h41M94 487h40M381 487h39M94 488h38M383 488h36M94 489h36M385 489h34M95 490h33M387 490h32M95 491h31M389 491h29M96 492h29M391 492h27M96 493h27M393 493h24M97 494h24M395 494h21M98 495h21M396 495h19M99 496h18M398 496h16M100 497h15M400 497h12M102 498h11M403 498h6M105 499h6" />
<path stroke="rgba(0,0,0,0.9882352941176471)" d="M258 12h1M242 21h1M218 70h1M295 75h1M296 77h1M297 79h1M238 91h1M274 94h1M275 96h1M276 98h1M195 117h1M214 140h1M340 164h1M141 169h1M67 180h1M325 189h1M356 194h1M363 195h1M145 196h1M370 196h1M1 197h1M509 207h1M462 216h1M10 217h1M477 239h1M476 240h1M78 245h1M42 248h1M414 263h1M112 278h1M75 280h1M424 291h1M107 311h1M120 326h1M135 401h1M290 409h1M105 415h1M313 421h1M198 422h1M258 423h1M181 431h1M336 433h1M411 436h1M325 458h1M177 464h1M160 473h1" />
<path stroke="rgba(0,0,0,0.8196078431372549)" d="M259 12h1M227 51h1M229 110h1M311 169h1M496 186h1M63 230h1M387 289h1M401 314h1M396 349h1M131 426h1M311 451h1" />
<path stroke="rgba(0,0,0,0.403921568627451)" d="M260 12h1M207 91h1M110 173h1M506 189h1M176 192h1M511 204h1M436 206h1M240 399h1M252 425h1M270 430h1M381 488h1M107 500h1" />
<path stroke="rgba(0,0,0,0.03529411764705882)" d="M261 12h1M232 39h1M248 73h1M224 122h1M185 135h1M333 149h1M334 151h1M340 163h1M168 164h1M375 168h1M91 205h1M500 218h1M27 235h1M440 236h1M448 269h1M392 283h1M395 321h1M118 332h1M394 333h1M137 395h1M405 396h1M241 398h1M277 401h1M103 421h1M251 426h1M384 445h1M338 466h1M420 482h1M117 497h1M113 499h1" />
<path stroke="rgba(0,0,0,0.03137254901960784)" d="M247 13h1M208 88h1M335 153h1M336 155h1M368 167h1M201 169h1M94 175h1M335 192h1M510 193h1M508 210h1M59 225h1M441 235h1M93 258h1M60 267h1M447 270h1M393 282h1M127 291h1M394 322h1M119 326h1M369 359h1M251 393h1M224 407h1M300 413h1M207 416h1M323 425h1M271 431h1M134 488h1M382 489h1" />
<path stroke="rgba(0,0,0,0.4745098039215686)" d="M248 13h1M246 76h1M187 132h1M400 172h1M319 185h1M83 249h1M407 269h1M363 322h1M407 410h1M366 448h1M142 451h1M362 478h1M93 483h1" />
<path stroke="rgba(0,0,0,0.9019607843137255)" d="M249 13h1M209 88h1M334 153h1M200 169h1M397 172h1M509 193h1M139 197h1M462 254h1M409 306h1M257 393h1M234 434h1" />
<path stroke="rgba(0,0,0,0.9254901960784314)" d="M261 13h1M234 37h1M222 124h1M326 137h1M198 173h1M432 177h1M0 202h1M85 205h1M17 224h1M465 251h1M82 287h1M377 299h1M412 303h1M144 348h1M275 401h1M209 416h1M340 466h1M132 488h1" />
<path stroke="rgba(0,0,0,0.5215686274509804)" d="M262 13h1M236 32h1M220 129h1M477 183h1M511 197h1M136 398h1M408 416h1M364 447h1M364 479h1" />
<path stroke="rgba(0,0,0,0.047058823529411764)" d="M263 13h1M210 84h1M327 137h1M328 139h1M403 172h1M199 173h1M511 205h1M1 209h1M64 209h1M26 234h1M438 238h1M95 260h1M450 267h1M129 293h1M91 297h1M397 319h1M398 356h1M139 383h1M321 424h1M175 433h1M317 455h1M183 462h1" />
<path stroke="rgba(0,0,0,0.09411764705882353)" d="M246 14h1M260 68h1M214 76h1M311 105h1M155 166h1M480 183h1M22 230h1M65 231h1M99 264h1M87 293h1M365 310h1M112 368h1M245 396h1M317 422h1M410 425h1M247 428h1M97 457h1M321 457h1M128 458h1" />
<path stroke="rgba(0,0,0,0.7803921568627451)" d="M247 14h1M268 20h1M225 55h1M303 153h1M433 177h1M52 182h1M503 214h1M61 228h1M363 319h1M364 326h1M147 331h1M379 412h1M169 437h1M309 450h1M189 458h1M417 469h1" />
<path stroke="rgba(0,0,0,0.8235294117647058)" d="M263 14h1M205 159h1M312 171h1M59 181h1M153 195h1M1 207h1M453 208h1M460 209h1M56 262h1M454 262h1M407 412h1M350 440h1M221 441h1M154 445h1" />
<path stroke="rgba(0,0,0,0.12156862745098039)" d="M264 14h1M216 72h1M268 84h1M303 89h1M135 169h1M427 205h1M50 211h1M20 228h1M67 233h1M101 266h1M85 291h1M149 323h1M213 413h1M315 421h1M323 458h1M145 482h1" />
<path stroke="rgba(0,0,0,0.18823529411764706)" d="M245 15h1M220 64h1M284 116h1M122 171h1M402 172h1M164 194h1M71 237h1M424 252h1M105 270h1M376 299h1M413 303h1M412 437h1M149 447h1" />
<path stroke="rgba(0,0,0,0.8862745098039215)" d="M246 15h1M225 118h1M338 161h1M339 163h1M369 168h1M92 204h1M429 248h1M460 256h1M381 295h1M117 343h1M373 377h1M401 378h1M207 417h1M102 432h1M346 438h1M151 478h1" />
<path stroke="rgba(0,0,0,0.9137254901960784)" d="M264 15h1M223 122h1M330 145h1M199 171h1M112 201h1M426 251h1M83 288h1M378 298h1M175 434h1M344 437h1M183 461h1M96 494h1" />
<path stroke="rgba(0,0,0,0.23137254901960785)" d="M265 15h1M234 101h1M293 134h1M472 182h1M56 210h1M14 222h1M469 248h1M373 302h1M115 351h1M142 364h1M372 375h1M309 418h1M100 440h1M329 461h1" />
<path stroke="rgba(0,0,0,0.1568627450980392)" d="M244 16h1M294 71h1M238 93h1M277 102h1M353 165h1M68 179h1M350 194h1M144 197h1M18 226h1M69 235h1M83 289h1M410 306h1M415 454h1" />
<path stroke="rgba(0,0,0,0.9568627450980393)" d="M245 16h1M237 31h1M256 58h1M257 60h1M314 113h1M219 130h1M107 174h1M195 179h1M488 185h1M179 191h1M14 221h1M79 284h1M417 298h1M399 367h1M110 385h1M228 406h1M340 435h1M128 443h1M363 447h1M95 474h1M365 479h1" />
<path stroke="rgba(0,0,0,0.9725490196078431)" d="M265 16h1M239 27h1M264 74h1M265 76h1M306 97h1M307 99h1M217 134h1M13 188h1M125 199h1M426 204h1M12 219h1M75 242h1M418 259h1M77 282h1M420 295h1M370 306h1M367 309h1M147 313h1M367 342h1M256 393h1M261 394h1M108 397h1M196 423h1M131 425h1M382 428h1M361 446h1M414 453h1M126 460h1M162 472h1M367 480h1M145 481h1" />
<path stroke="rgba(0,0,0,0.20392156862745098)" d="M266 16h1M283 49h1M174 158h1M149 167h1M467 250h1M48 255h1M106 271h1M375 300h1M113 318h1M405 397h1M183 429h1M175 466h1M96 495h1M400 498h1" />
<path stroke="rgba(0,0,0,0.011764705882352941)" d="M243 17h1M228 47h1M205 94h1M228 114h1M204 163h1M161 165h1M87 176h1M317 183h1M193 185h1M319 186h1M398 201h1M405 202h1M98 204h1M56 222h1M495 223h1M445 231h1M31 239h1M90 255h1M63 270h1M442 275h1M397 278h1M124 288h1M96 302h1M393 327h1M370 365h1M404 390h1M107 397h1M205 417h1M132 425h1M188 426h1M290 441h1M371 450h1M385 451h1M415 453h1M170 469h1M357 476h1M153 478h1M136 487h1M99 498h1" />
<path stroke="rgba(0,0,0,0.788235294117647)" d="M244 17h1M202 102h1M207 155h1M304 155h1M3 193h1M59 209h1M437 240h1M451 265h1M148 325h1M399 366h1M186 428h1M329 429h1M172 467h1M376 485h1" />
<path stroke="rgba(0,0,0,0.8509803921568627)" d="M266 17h1M251 65h1M182 143h1M113 173h1M4 192h1M173 192h1M397 200h1M22 229h1M432 245h1M99 265h1M87 292h1M404 311h1M120 325h1M393 332h1M370 360h1M135 402h1M222 409h1M105 414h1M385 446h1M371 451h1M357 475h1" />
<path stroke="rgba(0,0,0,0.0392156862745098)" d="M267 17h1M209 86h1M331 145h1M332 147h1M382 169h1M389 170h1M200 171h1M47 182h1M501 217h1M60 226h1M94 259h1M128 292h1M92 298h1M396 320h1M365 336h1M138 389h1M234 435h1M294 443h1M141 451h1M416 459h1M412 498h1" />
<path stroke="rgba(0,0,0,0.47058823529411764)" d="M243 18h1M327 138h1M393 171h1M97 175h1M455 222h1M484 233h1M117 282h1M396 347h1M130 434h1M233 435h1" />
<path stroke="rgba(0,0,0,0.592156862745098)" d="M267 18h1M216 73h1M267 81h1M304 92h1M357 166h1M44 183h1M339 192h1M449 228h1M438 278h1M368 350h1M113 365h1M229 437h1M146 449h1M98 454h1M345 469h1" />
<path stroke="rgba(0,0,0,0.9764705882352941)" d="M243 19h1M216 74h1M266 78h1M267 80h1M268 82h1M240 87h1M303 91h1M304 93h1M305 95h1M193 121h1M216 136h1M161 166h1M87 177h1M319 184h1M412 202h1M419 203h1M465 213h1M76 243h1M473 243h1M44 250h1M417 260h1M110 276h1M421 294h1M369 307h1M144 309h1M109 313h1M396 350h1M230 405h1M213 414h1M132 419h1M315 422h1M338 434h1M323 457h1M128 490h1" />
<path stroke="rgba(0,0,0,0.2627450980392157)" d="M268 19h1M271 25h1M299 146h1M428 205h1M143 307h1M399 363h1M353 441h1M97 458h1" />
<path stroke="rgba(0,0,0,0.6470588235294118)" d="M242 20h1M277 101h1M78 178h1M448 179h1M134 198h1M55 222h1M494 223h1M446 231h1M396 348h1M108 395h1M303 447h1M381 456h1" />
<path stroke="rgba(0,0,0,0.27450980392156865)" d="M269 21h1M301 150h1M407 202h1M418 258h1M370 305h1M147 334h1M111 375h1M219 410h1M307 417h1M96 464h1M404 499h1" />
<path stroke="rgba(0,0,0,0.6274509803921569)" d="M241 22h1M297 78h1M413 174h1M87 205h1M447 230h1M32 239h1M440 276h1M392 325h1M371 367h1M110 383h1M291 409h1M214 413h1M391 493h1" />
<path stroke="rgba(0,0,0,0.7725490196078432)" d="M269 22h1M301 149h1M419 175h1M0 200h1M26 233h1M450 266h1M129 294h1M146 337h1M395 343h1M112 372h1M152 446h1M97 461h1M353 473h1M111 499h1" />
<path stroke="rgba(0,0,0,0.12941176470588237)" d="M240 23h1M301 85h1M270 88h1M193 119h1M216 138h1M14 187h1M325 190h1M124 200h1M406 202h1M460 257h1M52 259h1M381 294h1M109 386h1M269 397h1M230 404h1M279 435h1M418 471h1M94 475h1" />
<path stroke="rgba(0,0,0,0.27058823529411763)" d="M270 23h1M224 56h1M232 105h1M136 169h1M414 203h1M49 211h1M466 211h1M75 241h1M472 245h1M364 312h1M264 427h1M139 485h1M420 486h1" />
<path stroke="rgba(0,0,0,0.6039215686274509)" d="M240 24h1M269 85h1M302 88h1M216 137h1M378 169h1M324 189h1M141 197h1M98 303h1M364 327h1M146 338h1M112 371h1M163 440h1M301 446h1M195 455h1M383 457h1M97 460h1M417 468h1" />
<path stroke="rgba(0,0,0,0.7686274509803922)" d="M270 24h1M201 104h1M208 153h1M412 174h1M99 175h1M397 318h1M368 349h1M383 435h1M223 440h1" />
<path stroke="rgba(0,0,0,0.11764705882352941)" d="M239 25h1M267 82h1M304 91h1M61 180h1M151 196h1M434 206h1M430 246h1M459 258h1M382 293h1M135 299h1M118 323h1M396 345h1M110 380h1M196 422h1M338 433h1M382 433h1M128 448h1M95 469h1M162 473h1" />
<path stroke="rgba(0,0,0,0.9803921568627451)" d="M240 25h1M217 72h1M269 84h1M270 86h1M301 87h1M302 89h1M40 184h1M391 199h1M398 200h1M405 201h1M98 203h1M464 214h1M11 218h1M474 242h1M416 261h1M76 281h1M422 293h1M368 308h1M247 396h1M269 398h1M107 403h1M378 405h1M292 410h1M133 413h1M407 413h1M245 428h1M279 434h1M130 458h1M346 469h1M418 476h1M390 492h1" />
<path stroke="rgba(0,0,0,0.5843137254901961)" d="M239 26h1M265 77h1M217 135h1M343 164h1M165 165h1M11 188h1M360 195h1M121 286h1M402 382h1M246 396h1M293 410h1M246 428h1M278 434h1M129 458h1M93 485h1M389 492h1" />
<path stroke="rgba(0,0,0,0.7647058823529411)" d="M271 26h1M232 104h1M300 147h1M405 173h1M25 186h1M113 201h1M502 215h1M59 265h1M391 285h1M145 343h1M240 431h1M286 438h1M413 446h1M135 455h1M397 496h1" />
<path stroke="rgba(0,0,0,0.10196078431372549)" d="M238 27h1M262 72h1M263 74h1M308 99h1M218 134h1M34 184h1M494 185h1M505 188h1M104 203h1M462 210h1M457 260h1M54 261h1M134 298h1M119 324h1M371 370h1M271 398h1M213 446h1M344 469h1" />
<path stroke="rgba(0,0,0,0.25882352941176473)" d="M272 27h1M298 144h1M435 206h1M76 207h1M471 246h1M419 257h1M371 304h1M145 346h1M185 428h1M308 450h1M173 467h1" />
<path stroke="rgba(0,0,0,0.5647058823529412)" d="M238 28h1M309 102h1M64 180h1M148 196h1M395 200h1M402 201h1M489 228h1M398 359h1M362 446h1M366 480h1M146 481h1M95 493h1" />
<path stroke="rgba(0,0,0,0.7568627450980392)" d="M272 28h1M298 143h1M177 153h1M391 171h1M72 179h1M94 260h1M396 319h1M144 349h1M372 372h1M235 402h1M387 458h1M330 461h1" />
<path stroke="rgba(0,0,0,0.09019607843137255)" d="M237 29h1M259 66h1M312 107h1M81 177h1M195 181h1M473 182h1M323 189h1M131 199h1M456 261h1M385 290h1M133 297h1M403 313h1M145 347h1M399 362h1M375 393h1M228 405h1M340 434h1" />
<path stroke="rgba(0,0,0,0.9647058823529412)" d="M238 29h1M260 66h1M261 68h1M310 105h1M311 107h1M218 132h1M60 181h1M194 181h1M152 195h1M511 200h1M447 207h1M454 208h1M467 211h1M13 220h1M74 241h1M471 245h1M419 258h1M78 283h1M418 297h1M371 305h1M109 391h1M271 399h1M294 411h1M277 433h1M230 436h1M162 441h1M213 445h1M145 450h1M94 480h1M388 491h1" />
<path stroke="rgba(0,0,0,0.2549019607843137)" d="M273 29h1M200 105h1M209 152h1M109 173h1M177 192h1M442 207h1M449 208h1M13 221h1M78 284h1M418 298h1M364 329h1M113 363h1M379 415h1M98 452h1M376 453h1M417 466h1" />
<path stroke="rgba(0,0,0,0.5411764705882353)" d="M237 30h1M257 61h1M314 112h1M219 131h1M158 166h1M444 207h1M35 242h1M276 433h1M412 439h1M161 441h1" />
<path stroke="rgba(0,0,0,0.7529411764705882)" d="M273 30h1M297 141h1M384 170h1M140 197h1M501 216h1M27 234h1M128 293h1M92 297h1M308 418h1" />
<path stroke="rgba(0,0,0,0.07450980392156863)" d="M236 31h1M244 81h1M317 117h1M189 127h1M220 130h1M452 179h1M54 181h1M56 263h1M454 263h1M401 315h1M114 356h1M143 359h1M273 399h1M406 402h1M177 432h1M99 445h1M181 463h1" />
<path stroke="rgba(0,0,0,0.24705882352941178)" d="M274 31h1M223 58h1M296 140h1M493 185h1M463 210h1M372 303h1M111 316h1M395 340h1M207 449h1" />
<path stroke="rgba(0,0,0,0.7490196078431373)" d="M274 32h1M200 106h1M209 151h1M377 169h1M66 208h1M448 268h1M392 284h1M143 355h1M114 360h1M254 393h1M218 411h1M263 426h1M331 430h1M99 449h1M123 493h1M410 498h1" />
<path stroke="rgba(0,0,0,0.06666666666666667)" d="M235 33h1M320 123h1M101 174h1M197 177h1M438 177h1M24 232h1M453 264h1M89 295h1M131 295h1M400 316h1M142 365h1M342 435h1M232 436h1M143 450h1M319 456h1M409 499h1" />
<path stroke="rgba(0,0,0,0.9450980392156862)" d="M236 33h1M319 123h1M220 128h1M189 129h1M80 178h1M467 182h1M510 205h1M15 222h1M72 239h1M422 255h1M415 300h1M147 330h1M395 344h1M296 412h1M275 432h1M177 433h1M126 455h1M181 462h1M386 490h1" />
<path stroke="rgba(0,0,0,0.24313725490196078)" d="M275 33h1M295 138h1M176 154h1M156 166h1M503 187h1M470 247h1M46 253h1M420 256h1M108 273h1M368 352h1M114 357h1M285 438h1M383 438h1M99 446h1M151 446h1M408 499h1" />
<path stroke="rgba(0,0,0,0.5019607843137255)" d="M235 34h1M321 126h1M151 167h1M442 178h1M433 283h1M393 330h1M370 362h1M274 400h1M106 406h1M385 448h1M341 467h1" />
<path stroke="rgba(0,0,0,0.7411764705882353)" d="M275 34h1M223 59h1M233 102h1M295 137h1M370 168h1M45 183h1M333 191h1M59 226h1M60 266h1M395 320h1M398 360h1M201 420h1M354 442h1" />
<path stroke="rgba(0,0,0,0.054901960784313725)" d="M234 35h1M222 126h1M324 131h1M325 133h1M148 167h1M417 174h1M198 175h1M25 233h1M437 239h1M451 266h1M389 286h1M130 294h1M116 344h1M275 400h1M209 415h1M101 433h1M340 467h1M132 489h1" />
<path stroke="rgba(0,0,0,0.9333333333333333)" d="M235 35h1M245 77h1M221 126h1M188 131h1M323 131h1M324 133h1M127 171h1M446 179h1M191 186h1M159 194h1M71 238h1M466 250h1M105 271h1M376 300h1M413 302h1M145 342h1M402 384h1M243 398h1M249 426h1M387 457h1" />
<path stroke="rgba(0,0,0,0.23921568627450981)" d="M276 35h1M82 177h1M486 184h1M130 199h1M417 299h1M142 306h1M143 358h1M263 394h1M224 440h1M413 443h1M396 496h1" />
<path stroke="rgba(0,0,0,0.47843137254901963)" d="M234 36h1M222 125h1M326 136h1M407 173h1M88 205h1M4 212h1M108 394h1M378 408h1M216 444h1M418 473h1M93 488h1" />
<path stroke="rgba(0,0,0,0.7372549019607844)" d="M276 36h1M294 135h1M176 155h1M363 167h1M340 192h1M93 204h1M500 217h1M93 259h1M115 354h1M142 361h1M100 443h1M307 449h1M157 475h1" />
<path stroke="rgba(0,0,0,0.043137254901960784)" d="M233 37h1M247 75h1M223 124h1M186 133h1M329 141h1M330 143h1M121 171h1M396 171h1M2 193h1M165 194h1M502 216h1M439 237h1M59 266h1M449 268h1M391 284h1M117 338h1M380 422h1M102 427h1M344 436h1M158 442h1M217 444h1M367 448h1M200 453h1M361 478h1" />
<path stroke="rgba(0,0,0,0.23529411764705882)" d="M277 37h1M199 107h1M294 136h1M210 150h1M479 183h1M79 285h1M402 380h1M286 406h1M241 431h1M134 455h1" />
<path stroke="rgba(0,0,0,0.4588235294117647)" d="M233 38h1M223 123h1M144 168h1M372 168h1M403 387h1M339 466h1M116 497h1" />
<path stroke="rgba(0,0,0,0.7333333333333333)" d="M277 38h1M166 165h1M356 166h1M347 193h1M447 269h1M393 283h1M365 332h1M380 418h1M377 454h1M416 463h1" />
<path stroke="rgba(0,0,0,0.9098039215686274)" d="M233 39h1M247 73h1M186 135h1M331 147h1M332 149h1M147 168h1M411 174h1M190 187h1M18 225h1M69 236h1M463 253h1M103 269h1M410 305h1M365 331h1M115 355h1M380 417h1M158 443h1M367 449h1M200 452h1M416 464h1M361 477h1M98 496h1" />
<path stroke="rgba(0,0,0,0.22745098039215686)" d="M278 39h1M222 60h1M292 132h1M129 170h1M465 181h1M157 195h1M0 206h1M73 239h1M421 255h1M416 300h1M234 402h1" />
<path stroke="rgba(0,0,0,0.43529411764705883)" d="M232 40h1M334 152h1M164 165h1M366 196h1M373 197h1M6 214h1M146 339h1M112 370h1M97 459h1M406 499h1" />
<path stroke="rgba(0,0,0,0.7294117647058823)" d="M278 40h1M293 133h1M210 149h1M349 165h1M92 176h1M354 194h1M28 235h1M441 236h1M127 292h1M93 298h1M394 321h1M116 348h1M141 367h1M405 400h1M184 429h1M174 466h1M351 472h1" />
<path stroke="rgba(0,0,0,0.027450980392156862)" d="M231 41h1M249 71h1M225 120h1M184 137h1M337 157h1M338 159h1M354 165h1M361 166h1M20 186h1M9 188h1M189 189h1M342 193h1M118 201h1M499 219h1M28 236h1M446 271h1M394 281h1M93 299h1M401 373h1M373 382h1M136 401h1M104 415h1M190 425h1M412 436h1M346 437h1M369 449h1M315 454h1M168 470h1M359 477h1M151 479h1" />
<path stroke="rgba(0,0,0,0.8980392156862745)" d="M232 41h1M224 120h1M335 155h1M390 171h1M65 208h1M19 226h1M68 235h1M84 289h1M380 296h1M394 338h1M116 349h1M369 354h1M141 366h1M241 399h1M277 402h1M251 425h1M101 438h1M384 440h1M338 465h1M412 497h1" />
<path stroke="rgba(0,0,0,0.2235294117647059)" d="M279 41h1M175 156h1M458 180h1M55 181h1M47 254h1M107 272h1M112 317h1M141 370h1M262 426h1M332 430h1M373 484h1M93 489h1" />
<path stroke="rgba(0,0,0,0.41568627450980394)" d="M231 42h1M225 119h1M338 160h1M63 180h1M149 196h1M408 202h1M481 236h1" />
<path stroke="rgba(0,0,0,0.7215686274509804)" d="M279 42h1M234 100h1M368 196h1M369 355h1M140 373h1M264 395h1M284 437h1M167 438h1M384 441h1" />
<path stroke="rgba(0,0,0,0.8823529411764706)" d="M231 43h1M249 69h1M184 139h1M167 165h1M362 167h1M334 191h1M20 227h1M67 234h1M101 267h1M85 290h1M407 308h1M139 378h1M190 426h1M369 450h1M387 459h1M168 469h1M359 476h1" />
<path stroke="rgba(0,0,0,0.2196078431372549)" d="M280 43h1M291 130h1M451 179h1M83 206h1M468 249h1M141 305h1M116 345h1M376 398h1M217 411h1M409 420h1M101 434h1M355 442h1M124 493h1" />
<path stroke="rgba(0,0,0,0.396078431372549)" d="M230 44h1M226 117h1M450 208h1M46 213h1M480 237h1M105 310h1M149 321h1M376 397h1M223 408h1M409 421h1M314 453h1" />
<path stroke="rgba(0,0,0,0.7176470588235294)" d="M280 44h1M222 61h1M291 129h1M139 169h1M375 197h1M382 198h1M46 211h1M58 225h1M61 267h1M446 270h1M394 282h1M363 320h1M117 342h1M102 431h1M208 448h1M395 495h1" />
<path stroke="rgba(0,0,0,0.8705882352941177)" d="M230 45h1M226 116h1M355 194h1M362 195h1M66 233h1M397 355h1M279 403h1M156 444h1M336 464h1" />
<path stroke="rgba(0,0,0,0.21568627450980393)" d="M281 45h1M198 109h1M290 128h1M211 148h1M102 174h1M444 178h1M422 254h1M374 301h1M398 357h1M140 376h1M306 449h1M141 484h1" />
<path stroke="rgba(0,0,0,0.7137254901960784)" d="M281 46h1M290 127h1M175 157h1M65 180h1M147 196h1M389 199h1M442 235h1M92 258h1M393 322h1M139 379h1M287 407h1M412 440h1M150 447h1M414 496h1" />
<path stroke="rgba(0,0,0,0.8549019607843137)" d="M229 47h1M227 114h1M501 187h1M390 199h1M65 232h1M457 259h1M384 292h1M404 395h1M348 439h1M313 452h1M119 495h1" />
<path stroke="rgba(0,0,0,0.20784313725490197)" d="M282 47h1M221 62h1M288 124h1M430 176h1M110 202h1M72 238h1M365 335h1M117 339h1M139 382h1M380 421h1M102 428h1M416 460h1M350 472h1M158 475h1" />
<path stroke="rgba(0,0,0,0.35294117647058826)" d="M228 48h1M228 113h1M150 167h1M436 177h1M316 180h1M461 216h1M9 217h1M74 280h1M136 399h1M104 417h1M237 433h1M138 453h1M419 478h1" />
<path stroke="rgba(0,0,0,0.7058823529411765)" d="M282 48h1M198 110h1M211 147h1M403 201h1M73 207h1M29 236h1M445 271h1M94 299h1M118 336h1M138 385h1M103 425h1M242 430h1M133 456h1" />
<path stroke="rgba(0,0,0,0.00784313725490196)" d="M227 49h1M252 65h1M204 96h1M229 112h1M181 143h1M205 161h1M314 177h1M315 179h1M316 181h1M13 187h1M125 200h1M412 203h1M419 204h1M426 205h1M433 206h1M51 211h1M55 221h1M494 224h1M493 225h1M447 229h1M446 230h1M89 254h1M64 271h1M399 276h1M441 276h1M398 277h1M440 277h1M123 287h1M374 388h1M108 391h1M281 403h1M304 415h1M327 427h1M267 429h1M411 430h1M131 431h1M171 435h1M130 437h1M221 442h1M154 444h1M204 451h1M187 460h1M334 464h1M93 480h1M378 487h1M414 497h1" />
<path stroke="rgba(0,0,0,0.8352941176470589)" d="M228 49h1M252 63h1M315 177h1M5 191h1M126 199h1M432 205h1M64 231h1M455 261h1M88 293h1M281 404h1M133 414h1M334 463h1M416 494h1" />
<path stroke="rgba(0,0,0,0.3333333333333333)" d="M227 50h1M229 111h1M401 172h1M49 182h1M476 241h1M252 393h1M106 405h1M289 440h1M415 455h1M126 459h1M137 486h1" />
<path stroke="rgba(0,0,0,0.7019607843137254)" d="M283 50h1M235 98h1M288 123h1M112 173h1M174 192h1M410 202h1M395 281h1M261 425h1M333 431h1M419 480h1M372 483h1M417 493h1" />
<path stroke="rgba(0,0,0,0.00392156862745098)" d="M226 51h1M254 61h1M253 63h1M203 98h1M230 110h1M180 145h1M179 147h1M206 159h1M309 167h1M134 169h1M310 169h1M311 171h1M312 173h1M313 175h1M60 180h1M320 187h1M179 192h1M152 196h1M78 207h1M440 207h1M447 208h1M454 209h1M461 210h1M54 220h1M492 226h1M491 227h1M448 228h1M32 240h1M33 241h1M88 253h1M65 272h1M401 274h1M400 275h1M439 278h1M122 286h1M97 303h1M98 304h1M149 324h1M363 325h1M400 367h1M109 385h1M237 400h1M283 404h1M407 407h1M220 409h1M378 411h1M255 424h1M238 433h1M350 439h1M288 440h1M129 443h1M373 451h1M311 452h1M137 453h1M418 470h1M94 474h1M355 475h1M138 486h1M418 493h1M121 495h1" />
<path stroke="rgba(0,0,0,0.2)" d="M284 51h1M287 122h1M423 175h1M75 178h1M137 198h1M423 253h1M414 302h1M140 304h1M394 334h1M138 388h1M265 395h1M283 437h1M394 495h1" />
<path stroke="rgba(0,0,0,0.30980392156862746)" d="M226 52h1M254 60h1M308 164h1M366 167h1M143 168h1M330 191h1M422 294h1M368 307h1M108 393h1M328 428h1M131 429h1M170 436h1M93 482h1" />
<path stroke="rgba(0,0,0,0.6980392156862745)" d="M284 52h1M221 63h1M287 121h1M38 184h1M511 198h1M100 203h1M417 203h1M0 204h1M443 234h1M137 391h1M377 401h1M233 403h1M408 417h1M356 443h1" />
<path stroke="rgba(0,0,0,0.19607843137254902)" d="M285 53h1M197 111h1M286 120h1M212 146h1M416 174h1M118 333h1M369 358h1M288 407h1M103 422h1M166 438h1M384 444h1M192 457h1" />
<path stroke="rgba(0,0,0,0.2901960784313726)" d="M225 54h1M304 156h1M372 197h1M96 204h1M44 251h1M417 259h1M110 275h1M369 306h1M109 314h1M149 322h1M367 346h1M382 432h1" />
<path stroke="rgba(0,0,0,0.6901960784313725)" d="M285 54h1M159 166h1M438 206h1M91 257h1M444 272h1M136 397h1M379 455h1M125 492h1" />
<path stroke="rgba(0,0,0,0.19215686274509805)" d="M286 55h1M236 97h1M285 118h1M409 173h1M63 209h1M16 224h1M466 251h1M81 287h1M137 394h1M311 419h1M209 448h1M327 460h1M109 500h1" />
<path stroke="rgba(0,0,0,0.6862745098039216)" d="M286 56h1M197 112h1M285 117h1M212 145h1M85 177h1M127 199h1M445 207h1M396 280h1M125 290h1M366 338h1M216 412h1M381 424h1M415 457h1M142 483h1M94 491h1" />
<path stroke="rgba(0,0,0,0.7607843137254902)" d="M224 57h1M299 145h1M146 168h1M398 172h1M60 227h1M439 238h1M449 267h1M365 311h1M113 366h1M402 383h1M285 406h1M98 455h1" />
<path stroke="rgba(0,0,0,0.996078431372549)" d="M286 57h1M287 59h1M288 61h1M289 63h1M290 65h1M220 66h1M236 95h1M281 108h1M282 110h1M283 112h1M197 113h1M284 114h1M285 116h1M212 144h1M174 160h1M173 162h1M168 165h1M368 168h1M375 169h1M382 170h1M47 183h1M165 193h1M91 204h1M45 213h1M46 214h1M8 215h1M459 219h1M480 236h1M479 237h1M40 246h1M80 247h1M412 265h1M411 266h1M73 278h1M114 280h1M427 288h1M426 289h1M105 309h1M118 338h1M397 356h1M138 383h1M137 389h1M249 395h1M377 399h1M288 408h1M408 419h1M311 420h1M381 422h1M260 424h1M103 427h1M243 429h1M183 430h1M334 432h1M283 436h1M226 438h1M166 439h1M357 444h1M209 447h1M149 448h1M192 456h1M132 457h1M327 459h1M175 465h1M371 482h1M419 482h1M394 494h1" />
<path stroke="rgba(0,0,0,0.1843137254901961)" d="M287 57h1M283 114h1M173 160h1M395 171h1M48 182h1M49 256h1M139 303h1M114 319h1M119 327h1M401 374h1M373 381h1M136 400h1M104 416h1M260 425h1M334 431h1M226 439h1M371 483h1" />
<path stroke="rgba(0,0,0,0.3686274509803922)" d="M255 58h1M251 66h1M182 142h1M82 206h1M106 311h1M118 334h1M138 387h1M280 403h1M172 435h1M335 464h1" />
<path stroke="rgba(0,0,0,0.6823529411764706)" d="M287 58h1M236 96h1M284 115h1M504 188h1M452 208h1M444 233h1M30 237h1M95 300h1M404 394h1M135 403h1M105 413h1M349 471h1" />
<path stroke="rgba(0,0,0,0.796078431372549)" d="M254 59h1M179 149h1M306 159h1M79 178h1M454 180h1M192 185h1M133 198h1M507 210h1M96 262h1M90 295h1M399 316h1M110 384h1M306 417h1M203 419h1M410 429h1M332 462h1M95 473h1" />
<path stroke="rgba(0,0,0,0.5372549019607843)" d="M256 59h1M243 82h1M190 126h1M84 177h1M128 199h1M451 208h1M458 209h1M51 218h1M404 272h1M435 281h1M148 314h1M118 335h1M401 376h1M373 379h1M138 386h1M295 411h1M103 424h1M214 445h1M387 491h1" />
<path stroke="rgba(0,0,0,0.1803921568627451)" d="M288 59h1M282 112h1M213 144h1M388 170h1M191 187h1M90 205h1M465 252h1M249 394h1M243 430h1M357 443h1M132 456h1" />
<path stroke="rgba(0,0,0,0.08235294117647059)" d="M256 60h1M257 62h1M213 78h1M314 111h1M315 113h1M459 180h1M184 191h1M57 210h1M64 230h1M455 262h1M386 289h1M88 294h1M402 314h1M144 353h1M379 416h1M298 445h1M98 451h1M386 458h1M147 481h1" />
<path stroke="rgba(0,0,0,0.6745098039215687)" d="M288 60h1M220 65h1M58 181h1M490 185h1M154 195h1M466 210h1M443 273h1M393 331h1M370 361h1M134 409h1M282 436h1M385 447h1M419 489h1M393 494h1" />
<path stroke="rgba(0,0,0,0.8156862745098039)" d="M253 61h1M180 147h1M310 167h1M489 185h1M79 206h1M506 211h1M435 242h1M97 263h1M89 294h1M367 343h1M108 396h1M382 429h1M238 432h1M373 452h1M137 454h1" />
<path stroke="rgba(0,0,0,0.17647058823529413)" d="M289 61h1M196 113h1M169 164h1M381 169h1M377 298h1M412 304h1M135 406h1M304 448h1M380 455h1M419 477h1M97 496h1" />
<path stroke="rgba(0,0,0,0.32941176470588235)" d="M253 62h1M180 146h1M312 172h1M509 192h1M511 196h1M89 205h1M75 281h1M404 392h1M133 417h1M204 418h1" />
<path stroke="rgba(0,0,0,0.9607843137254902)" d="M258 62h1M259 64h1M214 78h1M242 83h1M312 109h1M313 111h1M191 125h1M193 183h1M495 186h1M328 190h1M78 206h1M461 209h1M470 246h1M46 252h1M420 257h1M108 274h1M372 304h1M142 307h1M111 315h1M375 388h1M245 397h1M317 423h1M247 427h1M410 430h1M129 437h1M321 456h1M128 459h1" />
<path stroke="rgba(0,0,0,0.6705882352941176)" d="M289 62h1M282 111h1M173 161h1M483 184h1M56 223h1M63 269h1M106 407h1M289 408h1M182 430h1M176 465h1" />
<path stroke="rgba(0,0,0,0.5450980392156862)" d="M258 63h1M313 110h1M195 180h1M437 206h1M488 229h1M100 305h1M369 356h1M139 380h1M272 399h1M102 430h1M197 454h1" />
<path stroke="rgba(0,0,0,0.17254901960784313)" d="M290 63h1M237 95h1M281 110h1M374 168h1M95 175h1M318 184h1M192 186h1M17 225h1M70 236h1M425 251h1M82 288h1M232 403h1M377 404h1M105 410h1M408 414h1" />
<path stroke="rgba(0,0,0,0.34901960784313724)" d="M252 64h1M181 144h1M429 176h1M76 178h1M136 198h1M477 240h1M377 403h1M408 415h1M349 439h1M312 452h1" />
<path stroke="rgba(0,0,0,0.08627450980392157)" d="M258 64h1M243 83h1M313 109h1M190 125h1M219 132h1M466 181h1M433 243h1M55 262h1M113 362h1M211 414h1M363 446h1M365 480h1M130 490h1" />
<path stroke="rgba(0,0,0,0.6666666666666666)" d="M290 64h1M281 109h1M213 143h1M476 183h1M8 189h1M80 206h1M90 256h1M397 279h1M262 394h1M133 415h1M312 420h1M411 434h1M193 456h1M326 459h1" />
<path stroke="rgba(0,0,0,0.5529411764705883)" d="M259 65h1M111 173h1M175 192h1M423 204h1M451 226h1M140 374h1M405 399h1M180 463h1M93 484h1" />
<path stroke="rgba(0,0,0,0.16862745098039217)" d="M291 65h1M219 66h1M280 108h1M172 162h1M367 167h1M21 186h1M329 191h1M117 201h1M2 210h1M464 253h1M104 269h1M397 351h1M134 412h1M215 412h1M348 471h1M94 492h1M126 492h1" />
<path stroke="rgba(0,0,0,0.6588235294117647)" d="M291 66h1M237 94h1M469 182h1M31 185h1M442 274h1M96 301h1M107 401h1M132 421h1M259 424h1M335 432h1M210 447h1" />
<path stroke="rgba(0,0,0,0.6549019607843137)" d="M219 67h1M292 68h1M279 105h1M462 181h1M107 202h1M31 238h1M148 448h1M418 474h1M370 482h1" />
<path stroke="rgba(0,0,0,0.8666666666666667)" d="M250 67h1M183 141h1M341 164h1M140 169h1M369 196h1M45 211h1M21 228h1M458 258h1M100 266h1M86 291h1M383 293h1M137 390h1M255 393h1M302 415h1M219 442h1M418 491h1" />
<path stroke="rgba(0,0,0,0.5568627450980392)" d="M260 67h1M242 84h1M311 106h1M416 203h1M74 207h1M403 273h1M436 280h1M120 285h1M365 333h1M116 347h1M101 436h1M299 445h1M385 458h1M416 462h1M163 472h1" />
<path stroke="rgba(0,0,0,0.9921568627450981)" d="M291 67h1M219 68h1M292 69h1M293 71h1M294 73h1M237 93h1M277 100h1M278 102h1M279 104h1M280 106h1M196 115h1M213 142h1M172 164h1M347 165h1M354 166h1M361 167h1M94 176h1M20 187h1M184 190h1M335 191h1M342 192h1M508 192h1M349 193h1M2 195h1M118 200h1M44 211h1M44 212h1M9 216h1M461 217h1M460 218h1M478 238h1M79 246h1M41 247h1M413 264h1M74 279h1M113 279h1M425 290h1M106 310h1M119 332h1M393 333h1M366 336h1M370 359h1M136 395h1M404 396h1M267 397h1M232 404h1M215 413h1M104 421h1M281 435h1M385 445h1M304 447h1M380 456h1M415 459h1M348 470h1M143 482h1M126 491h1M392 493h1" />
<path stroke="rgba(0,0,0,0.16470588235294117)" d="M292 67h1M279 106h1M360 166h1M336 192h1M510 207h1M50 257h1M378 297h1M138 302h1M411 305h1M363 314h1M115 320h1M267 396h1M106 404h1M143 483h1M420 483h1" />
<path stroke="rgba(0,0,0,0.39215686274509803)" d="M250 68h1M183 140h1M157 166h1M499 186h1M457 209h1M459 218h1M80 246h1M40 247h1M411 265h1M427 289h1M398 358h1M141 369h1M347 438h1M135 487h1" />
<path stroke="rgba(0,0,0,0.6352941176470588)" d="M218 69h1M296 76h1M275 97h1M125 171h1M427 176h1M2 194h1M161 194h1M123 288h1M109 389h1M268 397h1M231 404h1M414 451h1M94 478h1" />
<path stroke="rgba(0,0,0,0.5607843137254902)" d="M261 69h1M310 104h1M191 124h1M218 133h1M502 187h1M409 202h1M86 252h1M67 273h1M141 368h1M380 419h1M195 423h1" />
<path stroke="rgba(0,0,0,0.1607843137254902)" d="M293 69h1M278 104h1M195 115h1M214 142h1M142 168h1M343 193h1M426 250h1M463 254h1M366 341h1M290 408h1M133 418h1M198 421h1M381 427h1M281 436h1M160 474h1M420 487h1M392 494h1M403 499h1" />
<path stroke="rgba(0,0,0,0.13725490196078433)" d="M217 70h1M299 81h1M272 92h1M162 165h1M0 197h1M392 200h1M19 227h1M68 234h1M428 248h1M461 256h1M102 267h1M84 290h1M400 368h1M374 387h1" />
<path stroke="rgba(0,0,0,0.4117647058823529)" d="M249 70h1M184 138h1M415 203h1M1 208h1M410 266h1M115 280h1M143 357h1M114 358h1M278 402h1M235 434h1M413 444h1M99 447h1M140 452h1M337 465h1M102 499h1" />
<path stroke="rgba(0,0,0,0.09803921568627451)" d="M261 70h1M242 85h1M309 101h1M310 103h1M191 123h1M487 184h1M432 244h1M384 291h1M404 312h1M148 313h1M146 341h1M294 410h1M277 434h1M230 437h1M145 449h1M388 492h1" />
<path stroke="rgba(0,0,0,0.9686274509803922)" d="M262 70h1M263 72h1M215 76h1M241 85h1M308 101h1M309 103h1M192 123h1M134 170h1M7 190h1M433 205h1M440 206h1M51 210h1M466 212h1M472 244h1M45 251h1M109 275h1M419 296h1M143 308h1M110 314h1M392 327h1M371 365h1M403 390h1M130 431h1M179 432h1M300 445h1M386 451h1M196 454h1M384 458h1M179 463h1M344 468h1" />
<path stroke="rgba(0,0,0,0.6509803921568628)" d="M293 70h1M278 103h1M172 163h1M152 167h1M455 180h1M398 278h1M378 407h1M407 411h1M131 427h1M227 438h1M358 444h1" />
<path stroke="rgba(0,0,0,0.611764705882353)" d="M217 71h1M300 84h1M392 171h1M448 229h1M400 276h1M122 287h1M147 332h1M250 394h1M257 423h1M180 431h1M178 464h1M368 481h1" />
<path stroke="rgba(0,0,0,0.8941176470588236)" d="M248 71h1M185 137h1M336 157h1M383 170h1M120 172h1M166 193h1M428 249h1M461 255h1M102 268h1M366 310h1M224 408h1M300 414h1M271 430h1M382 488h1M117 496h1" />
<path stroke="rgba(0,0,0,0.5686274509803921)" d="M262 71h1M138 169h1M194 182h1M388 199h1M0 205h1M47 211h1M52 219h1M115 353h1M142 362h1M212 414h1M339 434h1M100 442h1" />
<path stroke="rgba(0,0,0,0.43137254901960786)" d="M248 72h1M185 136h1M335 154h1M90 176h1M380 198h1M482 235h1M409 267h1M364 328h1M379 414h1M174 434h1M368 449h1M184 461h1M417 467h1M360 477h1M411 498h1" />
<path stroke="rgba(0,0,0,0.6431372549019608)" d="M294 72h1M195 116h1M214 141h1M441 178h1M320 186h1M89 255h1M64 270h1M441 275h1M248 395h1M244 429h1M131 457h1M93 487h1" />
<path stroke="rgba(0,0,0,0.5725490196078431)" d="M263 73h1M215 75h1M308 100h1M321 187h1M381 198h1M450 227h1M34 241h1M376 396h1M409 422h1M129 490h1" />
<path stroke="rgba(0,0,0,0.10588235294117647)" d="M215 74h1M264 76h1M307 97h1M108 173h1M194 183h1M178 192h1M455 209h1M21 229h1M431 245h1M100 265h1M86 292h1M405 311h1M147 335h1M111 374h1M403 385h1M162 440h1M196 455h1M386 456h1M96 463h1" />
<path stroke="rgba(0,0,0,0.4549019607843137)" d="M247 74h1M186 134h1M330 144h1M70 179h1M331 191h1M142 197h1M509 208h1M103 308h1M371 368h1M110 382h1M276 401h1M225 407h1M128 446h1M386 454h1M95 471h1" />
<path stroke="rgba(0,0,0,0.6392156862745098)" d="M295 74h1M238 92h1M276 99h1M434 177h1M1 196h1M60 209h1M508 209h1M363 321h1M367 344h1M382 430h1M130 433h1M347 470h1" />
<path stroke="rgba(0,0,0,0.9215686274509803)" d="M246 75h1M187 133h1M327 139h1M328 141h1M425 176h1M70 237h1M425 252h1M464 252h1M104 270h1M148 315h1M376 394h1M298 413h1M409 424h1M273 431h1M149 479h1M384 489h1M402 498h1" />
<path stroke="rgba(0,0,0,0.5764705882352941)" d="M264 75h1M241 86h1M307 98h1M17 187h1M374 197h1M121 200h1M402 274h1M437 279h1M99 304h1M229 405h1M316 422h1M322 457h1M401 498h1" />
<path stroke="rgba(0,0,0,0.14901960784313725)" d="M296 75h1M275 98h1M500 186h1M371 197h1M427 249h1M462 255h1M137 301h1M116 321h1M393 328h1M370 364h1M258 424h1M336 432h1M194 456h1M369 482h1M98 497h1" />
<path stroke="rgba(0,0,0,0.5490196078431373)" d="M214 77h1M312 108h1M37 184h1M101 203h1M430 205h1M394 336h1M117 341h1M178 432h1M384 442h1M343 468h1" />
<path stroke="rgba(0,0,0,0.050980392156862744)" d="M246 77h1M187 131h1M326 135h1M410 173h1M74 178h1M138 198h1M503 215h1M61 227h1M58 265h1M390 285h1M398 318h1M140 377h1M376 399h1M298 412h1M409 419h1M192 424h1M273 432h1M166 471h1M149 480h1M384 490h1M417 494h1" />
<path stroke="rgba(0,0,0,0.49411764705882355)" d="M245 78h1M188 130h1M323 130h1M406 270h1M149 318h1M297 412h1M274 432h1M385 490h1" />
<path stroke="rgba(0,0,0,0.10980392156862745)" d="M265 78h1M241 87h1M306 95h1M77 207h1M448 208h1M66 232h1M458 259h1M383 292h1M179 431h1M300 446h1M414 448h1M127 454h1M384 457h1M179 464h1" />
<path stroke="rgba(0,0,0,0.5294117647058824)" d="M213 79h1M316 116h1M131 170h1M491 185h1M54 210h1M68 274h1M119 284h1M137 392h1M320 456h1" />
<path stroke="rgba(0,0,0,0.9411764705882353)" d="M244 79h1M212 82h1M320 125h1M321 127h1M460 181h1M187 189h1M505 189h1M132 198h1M0 201h1M467 249h1M48 254h1M106 272h1M375 301h1M140 305h1M145 310h1M113 317h1M368 348h1M112 373h1M251 394h1M319 424h1M383 434h1M160 442h1M215 444h1M198 453h1M319 455h1M97 462h1" />
<path stroke="rgba(0,0,0,0.06274509803921569)" d="M245 79h1M321 125h1M322 127h1M221 128h1M188 129h1M431 176h1M27 185h1M505 213h1M436 240h1M57 264h1M452 265h1M388 287h1M115 350h1M243 397h1M249 427h1M100 439h1M413 442h1M365 447h1M363 479h1" />
<path stroke="rgba(0,0,0,0.5882352941176471)" d="M266 79h1M305 94h1M350 165h1M346 193h1M353 194h1M94 204h1M87 253h1M66 272h1M144 350h1M270 398h1M413 445h1" />
<path stroke="rgba(0,0,0,0.1411764705882353)" d="M298 79h1M239 91h1M273 94h1M190 188h1M385 199h1M97 204h1M380 295h1M108 392h1M131 430h1M411 431h1M228 438h1M302 447h1M147 448h1M382 456h1M93 481h1" />
<path stroke="rgba(0,0,0,0.07058823529411765)" d="M212 80h1M318 119h1M319 121h1M445 178h1M84 206h1M506 212h1M63 229h1M435 241h1M97 262h1M387 288h1M395 339h1M368 353h1M261 393h1M296 411h1M319 423h1M275 433h1M383 439h1M160 441h1M215 445h1M198 454h1M386 491h1M110 500h1" />
<path stroke="rgba(0,0,0,0.9490196078431372)" d="M213 80h1M317 119h1M318 121h1M154 167h1M196 177h1M474 183h1M468 248h1M80 285h1M374 302h1M141 306h1M364 325h1M111 379h1M273 400h1M406 407h1M194 424h1M127 449h1M342 467h1M96 468h1M164 471h1M104 499h1" />
<path stroke="rgba(0,0,0,0.5137254901960784)" d="M244 80h1M319 122h1M104 174h1M463 181h1M182 191h1M36 243h1M405 271h1M101 306h1M135 404h1M105 412h1M381 425h1M297 444h1" />
<path stroke="rgba(0,0,0,0.11372549019607843)" d="M266 80h1M305 93h1M192 121h1M217 136h1M441 207h1M53 260h1M406 310h1M148 329h1M367 347h1M361 445h1M367 481h1M105 500h1" />
<path stroke="rgba(0,0,0,0.6235294117647059)" d="M298 80h1M273 93h1M194 118h1M215 139h1M406 173h1M253 393h1M128 445h1M95 472h1M144 482h1" />
<path stroke="rgba(0,0,0,0.5098039215686274)" d="M212 81h1M320 124h1M456 180h1M30 185h1M507 190h1M50 217h1M453 224h1M366 339h1M415 456h1M131 489h1" />
<path stroke="rgba(0,0,0,0.9529411764705882)" d="M243 81h1M315 115h1M316 117h1M190 127h1M481 184h1M33 185h1M323 188h1M9 189h1M105 202h1M3 210h1M73 240h1M469 247h1M47 253h1M421 256h1M107 273h1M416 299h1M373 303h1M112 316h1M148 324h1M379 411h1M211 415h1M298 444h1M386 459h1M417 470h1M147 480h1M419 488h1M130 489h1M94 490h1" />
<path stroke="rgba(0,0,0,0.058823529411764705)" d="M211 82h1M323 129h1M424 175h1M111 202h1M504 214h1M62 228h1M96 261h1M90 296h1M147 311h1M399 317h1M141 371h1M372 376h1M402 379h1M226 406h1M296 444h1M95 494h1M415 496h1M115 498h1" />
<path stroke="rgba(0,0,0,0.6196078431372549)" d="M299 82h1M239 90h1M272 91h1M98 175h1M54 221h1M148 326h1M314 421h1M197 422h1M410 428h1M324 458h1M161 473h1" />
<path stroke="rgba(0,0,0,0.48627450980392156)" d="M211 83h1M324 132h1M124 171h1M421 175h1M6 190h1M162 194h1M400 370h1M199 453h1M318 455h1" />
<path stroke="rgba(0,0,0,0.6)" d="M268 83h1M240 88h1M193 120h1M371 168h1M67 208h1M491 226h1M33 240h1M406 405h1M212 446h1" />
<path stroke="rgba(0,0,0,0.13333333333333333)" d="M300 83h1M271 90h1M88 176h1M399 201h1M136 300h1M408 308h1M117 322h1M247 395h1M245 429h1M130 436h1M130 457h1M346 470h1" />
<path stroke="rgba(0,0,0,0.9294117647058824)" d="M211 84h1M325 135h1M439 178h1M53 182h1M424 253h1M49 255h1M139 304h1M114 318h1M113 367h1M372 371h1M226 407h1M296 443h1M98 456h1M97 495h1M115 497h1" />
<path stroke="rgba(0,0,0,0.4666666666666667)" d="M210 85h1M328 140h1M386 170h1M23 186h1M115 201h1M5 213h1M70 276h1M367 345h1M109 388h1M242 398h1M250 426h1M382 431h1M295 443h1M94 477h1" />
<path stroke="rgba(0,0,0,0.9176470588235294)" d="M210 86h1M329 143h1M100 175h1M418 175h1M26 186h1M467 210h1M50 256h1M138 303h1M411 304h1M115 319h1M143 354h1M114 361h1M398 361h1M192 425h1M321 425h1M99 450h1M317 454h1M166 470h1" />
<path stroke="rgba(0,0,0,0.12549019607843137)" d="M269 86h1M302 87h1M240 89h1M4 191h1M413 203h1M420 204h1M429 247h1M407 309h1M149 316h1M363 324h1M407 408h1M292 409h1M378 410h1M129 442h1M128 491h1M390 493h1M416 495h1" />
<path stroke="rgba(0,0,0,0.6078431372549019)" d="M301 86h1M270 87h1M145 168h1M385 170h1M71 179h1M439 277h1M379 413h1M360 445h1M126 457h1" />
<path stroke="rgba(0,0,0,0.4470588235294118)" d="M209 87h1M332 148h1M358 166h1M117 172h1M322 188h1M169 193h1M345 193h1M456 221h1M82 248h1M111 376h1M208 416h1M127 452h1M150 479h1M383 489h1" />
<path stroke="rgba(0,0,0,0.4235294117647059)" d="M208 89h1M336 156h1M201 168h1M326 190h1M510 194h1M394 200h1M47 214h1M39 246h1M104 309h1M395 341h1M113 364h1M260 393h1M293 442h1M157 443h1M201 452h1M98 453h1" />
<path stroke="rgba(0,0,0,0.615686274509804)" d="M271 89h1M399 172h1M24 186h1M114 201h1M492 225h1M88 254h1M65 271h1M399 365h1M111 377h1M375 390h1M337 433h1M127 451h1M96 466h1M93 486h1" />
<path stroke="rgba(0,0,0,0.8901960784313725)" d="M208 90h1M337 159h1M201 167h1M376 169h1M46 183h1M510 195h1M52 258h1M136 301h1M408 307h1M117 321h1M120 324h1M140 372h1M323 426h1M412 441h1M315 453h1M134 487h1" />
<path stroke="rgba(0,0,0,0.596078431372549)" d="M303 90h1M364 167h1M118 172h1M332 191h1M168 193h1M0 199h1M53 220h1M401 275h1M147 312h1M363 316h1M395 342h1M145 344h1M383 436h1" />
<path stroke="rgba(0,0,0,0.8745098039215686)" d="M207 92h1M202 165h1M348 165h1M19 187h1M348 193h1M511 199h1M119 200h1M430 247h1M459 257h1M53 259h1M406 309h1M118 322h1M118 337h1M138 384h1M377 400h1M408 418h1M103 426h1M173 435h1M202 451h1M101 498h1" />
<path stroke="rgba(0,0,0,0.3843137254901961)" d="M206 93h1M485 184h1M365 334h1M140 375h1M380 420h1M358 476h1M152 478h1" />
<path stroke="rgba(0,0,0,0.8588235294117647)" d="M206 94h1M203 163h1M189 188h1M383 198h1M511 201h1M72 207h1M2 209h1M54 260h1M119 323h1M136 396h1M239 400h1M253 424h1M415 458h1" />
<path stroke="rgba(0,0,0,0.3607843137254902)" d="M205 95h1M204 162h1M450 179h1M29 185h1M113 278h1M401 375h1M373 380h1M137 393h1M303 415h1M268 429h1M220 442h1M155 444h1M419 490h1" />
<path stroke="rgba(0,0,0,0.6313725490196078)" d="M274 95h1M420 175h1M51 182h1M511 203h1M493 224h1M399 277h1M97 302h1M403 388h1M280 435h1M129 439h1M386 453h1M127 491h1" />
<path stroke="rgba(0,0,0,0.8431372549019608)" d="M205 96h1M204 161h1M418 203h1M55 261h1M385 291h1M403 312h1M363 318h1M134 408h1M411 435h1M290 440h1M153 477h1M415 495h1" />
<path stroke="rgba(0,0,0,0.5803921568627451)" d="M306 96h1M192 122h1M91 176h1M367 196h1M510 206h1M490 227h1M143 356h1M114 359h1M372 373h1M99 448h1" />
<path stroke="rgba(0,0,0,0.3411764705882353)" d="M204 97h1M205 160h1M415 174h1M314 176h1M62 209h1M78 244h1M42 249h1M414 262h1M424 292h1M107 312h1M397 352h1M356 475h1M418 492h1M407 499h1" />
<path stroke="rgba(0,0,0,0.8274509803921568)" d="M204 98h1M133 170h1M313 173h1M446 207h1M52 210h1M434 243h1M132 297h1M107 402h1M378 406h1M132 420h1M267 428h1M327 428h1M204 450h1M418 475h1M378 486h1" />
<path stroke="rgba(0,0,0,0.3176470588235294)" d="M203 99h1M206 158h1M380 169h1M22 186h1M116 201h1M463 214h1M475 242h1M77 243h1M108 313h1M305 416h1M187 427h1M411 432h1M171 468h1" />
<path stroke="rgba(0,0,0,0.21176470588235294)" d="M235 99h1M289 126h1M437 177h1M28 185h1M15 223h1M80 286h1M415 301h1M366 309h1M200 420h1M378 454h1" />
<path stroke="rgba(0,0,0,0.807843137254902)" d="M203 100h1M206 157h1M475 183h1M32 185h1M400 315h1M403 389h1M109 390h1M130 432h1M288 439h1" />
<path stroke="rgba(0,0,0,0.2784313725490196)" d="M201 103h1M302 152h1M208 154h1M15 187h1M123 200h1M393 200h1M400 201h1M12 220h1M77 283h1M145 309h1M371 369h1M284 405h1M127 453h1M386 455h1M331 462h1M122 494h1M106 500h1" />
<path stroke="rgba(0,0,0,0.25098039215686274)" d="M233 103h1M297 142h1M35 184h1M103 203h1M456 209h1M74 240h1M144 352h1M406 403h1M168 437h1M190 458h1M352 473h1" />
<path stroke="rgba(0,0,0,0.7843137254901961)" d="M231 106h1M126 171h1M440 178h1M160 194h1M58 264h1M363 317h1M398 317h1M111 378h1M352 441h1M127 450h1M96 467h1M103 499h1" />
<path stroke="rgba(0,0,0,0.29411764705882354)" d="M231 107h1M305 158h1M42 183h1M365 196h1M76 242h1M421 295h1M396 346h1M239 432h1M129 441h1M136 454h1M354 474h1" />
<path stroke="rgba(0,0,0,0.6627450980392157)" d="M280 107h1M196 114h1M105 174h1M181 191h1M495 222h1M445 232h1M124 289h1M400 371h1M374 384h1M165 439h1" />
<path stroke="rgba(0,0,0,0.7254901960784313)" d="M199 108h1M292 131h1M342 164h1M18 187h1M361 195h1M120 200h1M499 218h1M364 313h1M394 337h1M101 437h1M191 457h1" />
<path stroke="rgba(0,0,0,0.803921568627451)" d="M230 108h1M308 163h1M468 182h1M318 183h1M106 202h1M505 212h1M436 241h1M57 263h1M388 288h1M392 326h1M371 366h1M220 410h1M386 452h1M94 479h1M121 494h1" />
<path stroke="rgba(0,0,0,0.3137254901960784)" d="M230 109h1M309 166h1M373 168h1M43 250h1M111 276h1M400 369h1M374 386h1M266 428h1M188 459h1M377 486h1M108 500h1" />
<path stroke="rgba(0,0,0,0.8392156862745098)" d="M228 112h1M160 166h1M86 177h1M316 179h1M425 204h1M433 244h1M400 372h1M374 383h1M106 408h1M188 427h1M170 468h1" />
<path stroke="rgba(0,0,0,0.6784313725490196)" d="M283 113h1M132 170h1M497 186h1M459 209h1M53 210h1M496 221h1M259 393h1M266 396h1M199 421h1M159 474h1" />
<path stroke="rgba(0,0,0,0.5333333333333333)" d="M315 114h1M498 186h1M465 210h1M452 225h1M85 251h1M318 423h1M231 436h1M144 450h1" />
<path stroke="rgba(0,0,0,0.3764705882352941)" d="M227 115h1M130 170h1M56 181h1M471 182h1M156 195h1M412 264h1M426 290h1M117 340h1M139 381h1M405 398h1M102 429h1M291 441h1" />
<path stroke="rgba(0,0,0,0.0784313725490196)" d="M316 115h1M128 170h1M196 179h1M187 190h1M3 192h1M158 195h1M507 211h1M23 231h1M434 242h1M98 263h1M132 296h1M364 330h1M194 423h1M417 465h1M342 468h1M164 472h1" />
<path stroke="rgba(0,0,0,0.5254901960784314)" d="M317 118h1M196 178h1M57 181h1M484 184h1M155 195h1M487 230h1M119 329h1M244 397h1M377 402h1M104 418h1M248 427h1M341 435h1M127 459h1M419 479h1" />
<path stroke="rgba(0,0,0,0.6941176470588235)" d="M286 119h1M174 159h1M424 204h1M431 205h1M497 220h1M57 224h1M62 268h1M119 330h1M397 354h1M104 419h1M305 448h1" />
<path stroke="rgba(0,0,0,0.5176470588235295)" d="M318 120h1M189 128h1M470 182h1M81 206h1M434 282h1M397 353h1M227 406h1M114 498h1" />
<path stroke="rgba(0,0,0,0.4392156862745098)" d="M224 121h1M333 150h1M344 164h1M359 195h1M95 204h1M71 277h1M116 281h1M399 364h1M191 425h1M345 437h1M316 454h1M126 458h1M167 470h1" />
<path stroke="rgba(0,0,0,0.7098039215686275)" d="M289 125h1M327 190h1M396 200h1M498 219h1M126 291h1M392 323h1M401 377h1M373 378h1M310 419h1M225 439h1M328 460h1" />
<path stroke="rgba(0,0,0,0.4980392156862745)" d="M221 127h1M322 128h1M435 177h1M77 178h1M186 190h1M135 198h1M69 275h1M118 283h1M133 416h1M193 424h1M165 471h1" />
<path stroke="rgba(0,0,0,0.9372549019607843)" d="M322 129h1M197 175h1M453 180h1M58 209h1M16 223h1M423 254h1M81 286h1M414 301h1M146 336h1M232 435h1M342 436h1M413 447h1M365 448h1M143 451h1M363 478h1M113 498h1" />
<path stroke="rgba(0,0,0,0.4823529411764706)" d="M325 134h1M198 174h1M414 174h1M50 182h1M49 216h1M37 244h1M432 284h1M102 307h1M131 428h1M343 436h1M159 442h1" />
<path stroke="rgba(0,0,0,0.7450980392156863)" d="M296 139h1M119 172h1M167 193h1M511 202h1M440 237h1M376 395h1M409 423h1M140 484h1M374 484h1" />
<path stroke="rgba(0,0,0,0.4627450980392157)" d="M329 142h1M379 169h1M199 172h1M188 189h1M431 285h1M129 440h1M414 450h1" />
<path stroke="rgba(0,0,0,0.8313725490196079)" d="M181 145h1M314 175h1M12 188h1M439 206h1M23 230h1M98 264h1M386 290h1M402 313h1M304 416h1M171 436h1M187 459h1" />
<path stroke="rgba(0,0,0,0.45098039215686275)" d="M331 146h1M365 167h1M193 184h1M338 192h1M68 208h1M48 215h1M483 234h1M38 245h1M408 268h1M392 324h1M148 327h1M299 413h1M272 431h1M133 488h1" />
<path stroke="rgba(0,0,0,0.3058823529411765)" d="M179 148h1M307 162h1M359 166h1M69 179h1M337 192h1M344 193h1M143 197h1M416 260h1M351 440h1M205 450h1M310 451h1" />
<path stroke="rgba(0,0,0,0.26666666666666666)" d="M300 148h1M177 152h1M62 180h1M150 196h1M421 204h1M45 252h1M109 274h1M419 297h1M110 315h1M146 340h1M112 369h1M375 392h1M202 419h1M410 426h1M330 429h1M156 476h1M375 485h1" />
<path stroke="rgba(0,0,0,0.7764705882352941)" d="M178 151h1M302 151h1M426 176h1M86 205h1M438 239h1M95 261h1M390 286h1M91 296h1M406 406h1M206 449h1M375 453h1M126 456h1" />
<path stroke="rgba(0,0,0,0.9058823529411765)" d="M333 151h1M404 173h1M73 179h1M427 250h1M51 257h1M379 297h1M137 302h1M116 320h1M142 360h1M405 401h1M294 442h1M217 443h1M100 444h1M141 452h1" />
<path stroke="rgba(0,0,0,0.2823529411764706)" d="M303 154h1M89 176h1M10 188h1M386 199h1M420 296h1M144 308h1M148 328h1M403 386h1" />
<path stroke="rgba(0,0,0,0.792156862745098)" d="M305 157h1M447 179h1M185 190h1M504 213h1M25 232h1M389 287h1M130 295h1M375 389h1M258 393h1M265 427h1M128 444h1M155 476h1" />
<path stroke="rgba(0,0,0,0.4196078431372549)" d="M337 158h1M137 169h1M508 191h1M0 198h1M401 201h1M48 211h1M81 247h1M144 351h1M368 351h1M383 437h1M218 443h1" />
<path stroke="rgba(0,0,0,0.40784313725490196)" d="M339 162h1M422 204h1M429 205h1M75 207h1M7 215h1M458 219h1M72 278h1M428 288h1M363 315h1M372 374h1M402 381h1M301 414h1" />
<path stroke="rgba(0,0,0,0.3254901960784314)" d="M170 164h1M311 170h1M394 171h1M3 211h1M10 218h1M423 293h1M393 329h1M370 363h1M282 404h1M385 449h1M154 477h1" />
<path stroke="rgba(0,0,0,0.49019607843137253)" d="M171 164h1M428 176h1M61 209h1M454 223h1M485 232h1M149 319h1M374 385h1M107 400h1M132 422h1M320 424h1M176 433h1M411 433h1M182 462h1" />
<path stroke="rgba(0,0,0,0.3803921568627451)" d="M203 164h1M478 183h1M55 210h1M8 216h1M479 238h1M73 279h1M189 426h1M416 461h1M169 469h1M413 497h1M100 498h1" />
<path stroke="rgba(0,0,0,0.8117647058823529)" d="M309 165h1M106 174h1M482 184h1M180 191h1M0 203h1M24 231h1M453 263h1M131 296h1M237 401h1M255 423h1M414 452h1M355 474h1" />
<path stroke="rgba(0,0,0,0.44313725490196076)" d="M351 165h1M200 170h1M43 183h1M352 194h1M430 286h1M149 320h1M147 333h1M375 391h1M322 425h1M410 427h1M96 465h1" />
<path stroke="rgba(0,0,0,0.30196078431372547)" d="M352 165h1M351 194h1M69 208h1M464 213h1M11 219h1M474 243h1M76 282h1M363 323h1M378 409h1M130 435h1M153 445h1M418 472h1M420 484h1" />
<path stroke="rgba(0,0,0,0.8784313725490196)" d="M355 166h1M93 176h1M341 192h1M382 294h1M135 300h1M292 441h1M185 460h1M419 481h1" />
<path stroke="rgba(0,0,0,0.3215686274509804)" d="M310 168h1M387 170h1M96 175h1M415 261h1M367 308h1M149 317h1M107 399h1M132 423h1M333 463h1" />
<path stroke="rgba(0,0,0,0.33725490196078434)" d="M123 171h1M408 173h1M313 174h1M163 194h1M462 215h1M112 277h1M366 340h1M221 409h1M134 411h1M256 423h1M381 426h1M120 495h1" />
<path stroke="rgba(0,0,0,0.36470588235294116)" d="M103 174h1M457 180h1M478 239h1M79 245h1M41 248h1M103 423h1M412 438h1M203 451h1" />
<path stroke="rgba(0,0,0,0.34509803921568627)" d="M422 175h1M315 178h1M183 191h1M238 400h1M135 405h1M105 411h1M254 424h1M372 451h1" />
<path stroke="rgba(0,0,0,0.5058823529411764)" d="M197 176h1M449 179h1M108 202h1M486 231h1M84 250h1M404 393h1M134 410h1M210 415h1M148 480h1" />
<path stroke="rgba(0,0,0,0.38823529411764707)" d="M83 177h1M492 185h1M129 199h1M464 210h1M114 279h1M116 346h1M206 417h1M101 435h1M370 450h1M405 499h1" />
<path stroke="rgba(0,0,0,0.3568627450980392)" d="M443 178h1M317 182h1M109 202h1M413 263h1M425 291h1M119 328h1M326 427h1M379 487h1" />
<path stroke="rgba(0,0,0,0.8627450980392157)" d="M66 180h1M146 196h1M376 197h1M431 246h1M134 299h1M405 310h1M119 331h1M366 337h1M104 420h1M381 423h1M325 427h1M269 429h1M236 433h1M139 453h1M380 487h1" />
<path stroke="rgba(0,0,0,0.8470588235294118)" d="M317 181h1M39 184h1M404 201h1M411 202h1M99 203h1M456 260h1M133 298h1M146 311h1M205 418h1M136 486h1M99 497h1" />
<path stroke="rgba(0,0,0,0.42745098039215684)" d="M16 187h1M387 199h1M122 200h1M457 220h1M429 287h1M145 345h1M406 404h1" />
</svg>