<svg xmlns="http://www.w3.org/2000/svg" viewBox="0 -0.5 512 512" shape-rendering="crispEdges">
<metadata>Made with Pixels to Svg https://codepen.io/shshaw/pen/XbxvNj</metadata>
<path stroke="rgba(255,200,91,0.054901960784313725)" d="M255 12h1M217 89h1M179 166h1M425 185h1M480 193h1M504 206h1M425 283h1M220 435h1M201 445h1M123 486h1M414 498h1" />
<path stroke="rgba(238,204,68,0.058823529411764705)" d="M256 12h1M218 87h1M180 164h1M363 176h1M6 205h1M46 244h1M85 282h1M125 321h1M126 329h1M239 425h1M142 476h1" />
<path stroke="rgba(238,209,73,0.47843137254901963)" d="M255 13h1M100 483h1" />
<path stroke="rgba(238,205,76,0.4823529411764706)" d="M256 13h1M217 90h1M294 90h1M332 167h1M489 220h1M410 297h1" />
<path stroke="rgba(254,231,92,0.043137254901960784)" d="M254 14h1M253 16h1M216 91h1M215 93h1M178 168h1M177 170h1M377 178h1M7 206h1M47 245h1M86 283h1M126 322h1M121 358h1M390 358h1M115 393h1M396 393h1M272 425h1M291 435h1M369 476h1M388 486h1" />
<path stroke="rgba(239,207,74,0.9176470588235294)" d="M255 14h1M217 91h1M179 168h1M76 272h1M126 334h1M182 454h1M104 495h1" />
<path stroke="rgba(239,206,74,0.9294117647058824)" d="M256 14h1M218 89h1M180 166h1M34 231h1M74 270h1M113 308h1M403 439h1M180 455h1M161 465h1M102 474h1" />
<path stroke="rgba(235,196,78,0.050980392156862744)" d="M257 14h1M258 16h1M295 91h1M333 168h1M370 177h1M503 207h1M464 245h1M424 284h1M385 322h1M402 428h1M312 446h1M182 455h1M408 463h1M104 496h1M409 497h1M97 498h1" />
<path stroke="rgba(239,207,74,0.4666666666666667)" d="M254 15h1M333 169h1M158 175h1M151 176h1M144 177h1M374 178h1M381 179h1M388 180h1M103 183h1M96 184h1M89 185h1M436 187h1M443 188h1M450 189h1M48 191h1M41 192h1M34 193h1M491 195h1M498 196h1M505 197h1M20 218h1M21 219h1M60 257h1M99 295h1M100 296h1M124 343h1M393 378h1M240 424h1M273 425h1M221 434h1M292 435h1M202 444h1M311 445h1M313 446h1M183 454h1M332 456h1M162 465h1M351 466h1M143 475h1M370 476h1M124 485h1M389 486h1M105 495h1M410 497h1" />
<path stroke="#efce4a" d="M255 15h2M255 16h2M254 17h4M254 18h4M253 19h6M253 20h6M252 21h8M252 22h8M251 23h10M251 24h10M250 25h12M250 26h12M249 27h14M249 28h14M248 29h16M248 30h16M247 31h18M247 32h18M246 33h20M246 34h20M245 35h22M245 36h22M244 37h24M244 38h24M243 39h26M243 40h26M242 41h28M242 42h28M241 43h30M241 44h30M240 45h32M240 46h32M239 47h34M239 48h34M238 49h36M238 50h36M237 51h38M237 52h38M236 53h40M236 54h40M236 55h41M235 56h42M235 57h43M234 58h44M234 59h44M233 60h46M233 61h46M232 62h48M232 63h48M231 64h50M231 65h50M230 66h52M230 67h52M229 68h54M229 69h54M228 70h56M228 71h56M227 72h58M227 73h58M226 74h60M226 75h60M225 76h62M225 77h62M224 78h64M224 79h64M223 80h66M223 81h66M222 82h68M222 83h68M221 84h70M221 85h70M220 86h72M220 87h72M219 88h74M219 89h74M218 90h76M218 91h76M217 92h78M217 93h78M216 94h80M216 95h80M215 96h82M215 97h82M214 98h84M214 99h84M213 100h86M213 101h86M212 102h88M212 103h88M211 104h90M211 105h90M210 106h92M210 107h92M209 108h94M209 109h94M208 110h96M208 111h96M207 112h98M207 113h98M206 114h100M206 115h100M205 116h102M205 117h102M204 118h104M204 119h104M203 120h106M203 121h106M202 122h108M202 123h108M201 124h110M201 125h110M200 126h112M200 127h112M199 128h114M199 129h114M198 130h116M198 131h116M198 132h117M197 133h118M197 134h119M196 135h120M196 136h120M195 137h122M195 138h122M194 139h124M194 140h124M193 141h126M193 142h126M192 143h128M192 144h128M191 145h130M191 146h130M190 147h132M190 148h132M189 149h134M189 150h134M188 151h136M188 152h136M187 153h138M187 154h138M186 155h140M186 156h140M185 157h142M185 158h142M184 159h144M184 160h144M183 161h146M183 162h146M182 163h148M182 164h148M181 165h150M181 166h150M180 167h152M180 168h152M179 169h154M179 170h154M178 171h156M178 172h156M176 173h160M169 174h174M162 175h188M155 176h202M149 177h215M142 178h229M135 179h243M128 180h256M121 181h270M114 182h284M107 183h298M100 184h312M94 185h325M87 186h339M80 187h353M73 188h367M66 189h380M59 190h394M52 191h408M45 192h422M38 193h436M32 194h449M25 195h463M18 196h477M11 197h490M4 198h504M2 199h508M3 200h506M4 201h504M5 202h502M6 203h500M7 204h498M8 205h496M9 206h494M10 207h492M11 208h490M12 209h488M13 210h486M14 211h484M15 212h482M16 213h480M17 214h478M18 215h476M19 216h474M20 217h472M21 218h470M22 219h468M23 220h466M25 221h462M26 222h460M27 223h458M28 224h456M29 225h454M30 226h452M31 227h450M32 228h448M33 229h446M34 230h444M35 231h442M36 232h440M37 233h438M38 234h436M39 235h434M40 236h432M41 237h430M42 238h428M43 239h426M44 240h424M45 241h422M46 242h420M47 243h418M48 244h416M49 245h414M50 246h412M51 247h410M52 248h408M53 249h406M54 250h404M55 251h402M56 252h400M57 253h398M58 254h396M59 255h394M60 256h392M61 257h390M62 258h388M64 259h384M65 260h382M66 261h380M67 262h378M68 263h376M69 264h374M70 265h372M71 266h370M72 267h368M73 268h366M74 269h364M75 270h362M76 271h360M77 272h358M78 273h356M79 274h354M80 275h352M81 276h350M82 277h348M83 278h346M84 279h344M85 280h342M86 281h340M87 282h338M88 283h336M89 284h334M90 285h332M91 286h330M92 287h328M93 288h326M94 289h324M95 290h322M96 291h320M97 292h318M98 293h316M99 294h314M100 295h312M101 296h310M102 297h308M104 298h304M105 299h302M106 300h300M107 301h298M108 302h296M109 303h294M110 304h292M111 305h290M112 306h288M113 307h286M114 308h284M115 309h282M116 310h280M117 311h278M118 312h276M119 313h274M120 314h272M121 315h270M122 316h268M123 317h266M124 318h264M125 319h262M126 320h260M127 321h258M128 322h256M128 323h256M128 324h256M128 325h256M128 326h256M128 327h256M128 328h256M128 329h257M127 330h258M127 331h258M127 332h258M127 333h258M127 334h258M126 335h260M126 336h260M126 337h260M126 338h260M126 339h260M126 340h260M125 341h262M125 342h262M125 343h262M125 344h262M125 345h262M125 346h262M124 347h264M124 348h264M124 349h264M124 350h264M124 351h264M124 352h264M123 353h266M123 354h266M123 355h266M123 356h266M123 357h266M123 358h266M122 359h268M122 360h268M122 361h268M122 362h268M122 363h268M121 364h270M121 365h270M121 366h270M121 367h270M121 368h270M121 369h270M120 370h272M120 371h272M120 372h272M120 373h272M120 374h272M120 375h272M119 376h274M119 377h274M119 378h274M119 379h274M119 380h274M119 381h274M118 382h276M118 383h276M118 384h276M118 385h276M118 386h276M118 387h276M117 388h278M117 389h278M117 390h278M117 391h278M117 392h278M117 393h278M116 394h280M116 395h280M116 396h280M116 397h280M116 398h280M115 399h282M115 400h282M115 401h282M115 402h282M115 403h282M115 404h282M114 405h284M114 406h284M114 407h284M114 408h284M114 409h284M114 410h284M113 411h286M113 412h286M113 413h286M113 414h286M113 415h286M113 416h141M258 416h141M112 417h140M260 417h140M112 418h138M262 418h138M112 419h137M263 419h137M112 420h135M265 420h135M112 421h133M267 421h133M112 422h131M269 422h131M111 423h130M271 423h130M111 424h128M273 424h128M111 425h126M275 425h126M111 426h124M277 426h124M111 427h122M279 427h122M111 428h120M281 428h120M110 429h120M283 429h119M110 430h118M284 430h118M110 431h116M286 431h116M110 432h114M288 432h114M110 433h112M290 433h112M109 434h111M292 434h111M109 435h109M294 435h109M109 436h107M296 436h107M109 437h105M298 437h105M109 438h103M300 438h103M109 439h102M302 439h101M108 440h101M303 440h101M108 441h99M305 441h99M108 442h97M307 442h97M108 443h95M309 443h95M108 444h93M311 444h93M108 445h91M313 445h91M107 446h90M315 446h90M107 447h88M317 447h88M107 448h86M319 448h86M107 449h85M321 449h84M107 450h83M322 450h83M107 451h81M324 451h81M106 452h80M326 452h80M106 453h78M328 453h78M106 454h76M330 454h76M106 455h74M332 455h74M106 456h72M334 456h72M106 457h70M336 457h70M105 458h69M338 458h69M105 459h67M340 459h67M105 460h66M341 460h66M105 461h64M343 461h64M105 462h62M345 462h62M105 463h60M347 463h60M104 464h59M349 464h59M104 465h57M351 465h57M104 466h55M353 466h55M104 467h53M355 467h53M104 468h51M357 468h51M103 469h50M359 469h50M103 470h49M360 470h49M103 471h47M362 471h47M103 472h45M364 472h45M103 473h43M366 473h43M103 474h41M368 474h41M102 475h40M370 475h40M102 476h38M372 476h38M102 477h36M374 477h36M102 478h34M376 478h34M102 479h32M378 479h32M102 480h31M380 480h30M101 481h30M381 481h30M101 482h28M383 482h28M101 483h26M385 483h26M101 484h24M387 484h24M101 485h22M389 485h22M101 486h20M391 486h20M100 487h19M393 487h19M100 488h17M395 488h17M100 489h15M397 489h15M100 490h14M399 490h13M100 491h12M400 491h12M100 492h10M402 492h10M99 493h9M404 493h9M99 494h7M406 494h7M99 495h5M408 495h5M99 496h3M410 496h3M99 497h1M412 497h1" />
<path stroke="rgba(238,206,74,0.47058823529411764)" d="M257 15h1M216 92h1M295 92h1M178 169h1M118 378h1M399 413h1M405 448h1" />
<path stroke="rgba(239,206,74,0.9137254901960784)" d="M254 16h1M216 93h1M178 170h1M474 234h1M434 273h1M395 311h1M331 455h1M409 496h1" />
<path stroke="rgba(239,206,73,0.9254901960784314)" d="M257 16h1M294 91h1M295 93h1M332 168h1M333 170h1M35 232h1M114 309h1M239 424h1M108 439h1M142 475h1" />
<path stroke="rgba(241,208,76,0.4549019607843137)" d="M253 17h1M215 94h1M296 94h1M334 171h1" />
<path stroke="rgba(241,207,74,0.4588235294117647)" d="M258 17h1M177 171h1M61 258h1" />
<path stroke="rgba(223,191,95,0.03137254901960784)" d="M252 18h1M251 20h1M214 95h1M213 97h1M148 176h1M501 196h1M500 210h1M461 248h1M421 287h1M222 434h1M203 444h1M125 485h1M98 492h1" />
<path stroke="rgba(239,206,73,0.8980392156862745)" d="M253 18h1M38 235h1M77 273h1M115 398h1M402 433h1M329 454h1M407 495h1" />
<path stroke="rgba(239,206,74,0.9215686274509803)" d="M258 18h1M36 233h1M75 271h1M115 310h1M385 334h1M120 369h1M391 369h1M114 404h1M397 404h1M220 434h1M201 444h1M123 485h1" />
<path stroke="rgba(255,233,85,0.047058823529411764)" d="M259 18h1M296 93h1M334 170h1M432 186h1M487 194h1M502 208h1M463 246h1M423 285h1M109 428h1M331 456h1M103 463h1M350 466h1" />
<path stroke="rgba(239,207,75,0.4392156862745098)" d="M252 19h1M488 221h1M409 298h1M119 372h1M398 407h1" />
<path stroke="rgba(239,205,74,0.44313725490196076)" d="M259 19h1M214 96h1M297 96h1M449 259h1M113 407h1M404 442h1" />
<path stroke="rgba(239,206,74,0.8941176470588236)" d="M252 20h1M214 97h1M78 274h1M117 312h1M121 363h1M396 398h1M163 464h1" />
<path stroke="rgba(240,206,75,0.9058823529411765)" d="M259 20h1M297 97h1M99 184h1M472 236h1M433 274h1M393 313h1M272 424h1M103 468h1M369 475h1" />
<path stroke="rgba(254,198,84,0.03529411764705882)" d="M260 20h1M261 22h1M298 97h1M299 99h1M384 179h1M501 209h1M462 247h1M422 286h1M241 424h1M163 465h1M144 475h1M413 492h1" />
<path stroke="rgba(240,208,77,0.42745098039215684)" d="M251 21h1M487 222h1M408 299h1" />
<path stroke="rgba(241,206,74,0.43137254901960786)" d="M260 21h1M213 98h1M298 98h1M0 198h1M511 198h1M448 260h1M386 337h1" />
<path stroke="rgba(255,255,109,0.027450980392156862)" d="M250 22h1M262 24h1M212 99h1M300 101h1M141 177h1M86 185h1M31 193h1M49 247h1M460 249h1M389 352h1M116 387h1M395 387h1M110 422h1M401 422h1M184 454h1M104 457h1M407 457h1M165 464h1M106 495h1" />
<path stroke="rgba(239,206,74,0.8901960784313725)" d="M251 22h1M213 99h1M39 236h1M118 313h1M127 328h1M390 363h1M241 423h1M144 474h1" />
<path stroke="rgba(239,206,74,0.9019607843137255)" d="M260 22h1M215 95h1M298 99h1M154 176h1M440 188h1M495 196h1M37 234h1M116 311h1M109 433h1M291 434h1M310 444h1M408 468h1M388 485h1" />
<path stroke="rgba(238,209,76,0.41568627450980394)" d="M250 23h1M212 100h1M299 100h1M486 223h1M62 259h1M114 401h1M108 436h1M409 471h1" />
<path stroke="rgba(238,207,76,0.4196078431372549)" d="M261 23h1M447 261h1M102 471h1" />
<path stroke="rgba(255,204,51,0.0196078431372549)" d="M249 24h1M248 26h1M211 101h1M210 103h1M302 105h1M127 179h1M72 187h1M17 195h1M499 211h1M51 249h1M459 250h1M420 288h1M308 444h1M327 454h1M386 485h1M405 495h1" />
<path stroke="rgba(240,206,74,0.8745098039215686)" d="M250 24h1M509 200h1M430 277h1M391 315h1M243 422h1M104 462h1M146 473h1M413 497h1" />
<path stroke="rgba(239,206,74,0.8862745098039215)" d="M261 24h1M299 101h1M432 275h1M384 328h1M222 433h1M125 484h1" />
<path stroke="rgba(240,205,75,0.4)" d="M249 25h1M347 174h1M354 175h1M361 176h1M137 178h1M130 179h1M123 180h1M402 182h1M409 183h1M416 184h1M75 187h1M68 188h1M61 189h1M464 191h1M471 192h1M478 193h1M20 195h1M13 196h1M6 197h1M244 422h1M242 423h1M271 424h1M223 433h1M290 434h1M204 443h1M309 444h1M185 453h1M328 454h1M330 455h1M166 463h1M349 465h1M147 473h1M145 474h1M368 475h1M126 484h1M387 485h1M107 494h1M406 495h1" />
<path stroke="rgba(240,205,74,0.403921568627451)" d="M262 25h1M211 102h1M300 102h1M63 260h1M385 331h1" />
<path stroke="rgba(240,206,74,0.8705882352941177)" d="M249 26h1M211 103h1M79 275h1M116 392h1M270 423h1M110 427h1M407 462h1M348 464h1" />
<path stroke="rgba(239,206,74,0.8823529411764706)" d="M262 26h1M300 103h1M471 237h1M392 314h1M203 443h1M106 494h1" />
<path stroke="rgba(255,255,85,0.023529411764705882)" d="M263 26h1M264 28h1M301 103h1M134 178h1M79 186h1M24 194h1M10 209h1M11 210h1M50 248h1M89 286h1M90 287h1M122 352h1M270 424h1M289 434h1M329 455h1M348 465h1M367 475h1" />
<path stroke="rgba(242,206,77,0.38823529411764707)" d="M248 27h1M109 430h1M408 465h1" />
<path stroke="rgba(242,209,76,0.39215686274509803)" d="M263 27h1M210 104h1M301 104h1M64 261h1M103 465h1" />
<path stroke="rgba(255,170,85,0.011764705882352941)" d="M247 28h1M246 30h1M245 32h1M209 105h1M208 107h1M207 109h1M391 180h1M453 189h1M508 197h1M12 211h1M13 212h1M14 213h1M52 250h1M53 251h1M91 288h1M92 289h1M93 290h1M123 346h1M388 346h1M117 381h1M394 381h1M245 422h1M186 453h1M167 463h1M108 494h1" />
<path stroke="rgba(239,207,74,0.8549019607843137)" d="M248 28h1M210 105h1M303 109h1M81 277h1M327 453h1" />
<path stroke="rgba(239,206,75,0.8784313725490196)" d="M263 28h1M212 101h1M301 105h1M510 199h1M470 238h1M431 276h1M184 453h1M165 463h1M98 497h1" />
<path stroke="rgba(239,207,74,0.3764705882352941)" d="M247 29h1M209 106h1M302 106h1M384 325h1M390 360h1" />
<path stroke="rgba(239,205,76,0.3803921568627451)" d="M264 29h1M446 262h1M127 325h1M121 360h1M396 395h1" />
<path stroke="rgba(238,205,74,0.8470588235294118)" d="M247 30h1M208 109h1M508 201h1M429 278h1M224 432h1M105 456h1M99 491h1" />
<path stroke="rgba(239,206,74,0.8627450980392157)" d="M264 30h1M302 107h1M1 199h1M80 276h1M389 357h1M308 443h1M386 484h1" />
<path stroke="rgba(255,191,127,0.01568627450980392)" d="M265 30h1M266 32h1M303 107h1M304 109h1M446 188h1M10 196h1M498 212h1M497 213h1M458 251h1M419 289h1M418 290h1M111 416h1M400 416h1M243 423h1M224 433h1M205 443h1M105 451h1M406 451h1M346 464h1M146 474h1M127 484h1M99 486h1M412 486h1" />
<path stroke="rgba(238,205,77,0.3607843137254902)" d="M246 31h1M484 225h1M405 302h1M104 459h1M413 494h1" />
<path stroke="rgba(241,208,74,0.36470588235294116)" d="M265 31h1M208 108h1M303 108h1M98 494h1" />
<path stroke="rgba(240,206,74,0.8431372549019608)" d="M246 32h1M507 202h1M468 240h1M428 279h1M389 317h1M111 421h1M205 442h1M406 456h1M127 483h1M412 491h1" />
<path stroke="rgba(239,206,75,0.8588235294117647)" d="M265 32h1M2 200h1M41 238h1M120 315h1M405 494h1" />
<path stroke="rgba(240,206,74,0.34901960784313724)" d="M245 33h1M389 354h1" />
<path stroke="rgba(238,209,76,0.35294117647058826)" d="M266 33h1M207 110h1M304 110h1M65 262h1M122 354h1M395 389h1M401 424h1" />
<path stroke="rgba(255,255,255,0.00784313725490196)" d="M244 34h1M267 34h1M268 36h1M269 38h1M206 111h1M305 111h1M306 113h1M307 115h1M175 172h1M336 172h1M343 173h1M398 181h1M460 190h1M496 214h1M495 215h1M457 252h1M456 253h1M417 291h1M416 292h1M268 423h1M226 432h1M287 433h1M306 443h1M325 453h1M148 473h1M365 474h1M100 480h1M411 480h1M384 484h1M403 494h1" />
<path stroke="rgba(239,205,74,0.8274509803921568)" d="M245 34h1M207 111h1M306 115h1M43 240h1M122 317h1M226 431h1M148 472h1" />
<path stroke="rgba(240,206,75,0.8392156862745098)" d="M266 34h1M304 111h1M467 241h1M388 318h1M117 386h1M400 421h1M108 493h1" />
<path stroke="rgba(240,207,74,0.33725490196078434)" d="M244 35h1M305 112h1M27 225h1M106 302h1M99 488h1" />
<path stroke="rgba(240,205,73,0.3411764705882353)" d="M267 35h1M206 112h1M66 263h1" />
<path stroke="rgba(255,255,0,0.00392156862745098)" d="M243 36h1M242 38h1M270 40h1M271 42h1M205 113h1M204 115h1M308 117h1M309 119h1M350 174h1M405 182h1M467 191h1M15 214h1M16 215h1M17 216h1M494 216h1M54 252h1M55 253h1M56 254h1M455 254h1M94 291h1M95 292h1M96 293h1M415 293h1M124 340h1M387 340h1M118 375h1M393 375h1M112 410h1M399 410h1M266 422h1M207 442h1M106 445h1M405 445h1M188 452h1M169 462h1M344 463h1M363 473h1M129 483h1M110 493h1" />
<path stroke="rgba(239,206,74,0.8196078431372549)" d="M244 36h1M206 113h1M44 241h1M123 318h1M287 432h1M384 483h1M100 485h1" />
<path stroke="rgba(239,207,74,0.8352941176470589)" d="M267 36h1M305 113h1M351 175h1M71 188h1M468 192h1M16 196h1M2 198h1M509 198h1M42 239h1M121 316h1M123 351h1M394 386h1M186 452h1" />
<path stroke="rgba(242,208,76,0.3254901960784314)" d="M243 37h1M268 37h1M205 114h1M306 114h1M117 383h1M400 418h1" />
<path stroke="rgba(240,206,75,0.8)" d="M243 38h1M205 115h1M174 173h1M167 174h1M358 176h1M365 177h1M372 178h1M126 180h1M119 181h1M112 182h1M105 183h1M413 184h1M420 185h1M427 186h1M64 189h1M57 190h1M50 191h1M475 193h1M482 194h1M489 195h1M9 197h1M504 205h1M465 243h1M425 282h1M386 320h1M266 421h1M363 472h1" />
<path stroke="rgba(239,206,75,0.8313725490196079)" d="M268 38h1M3 201h1M82 278h1M388 351h1M245 421h1M167 462h1" />
<path stroke="rgba(242,209,74,0.30980392156862746)" d="M242 39h1" />
<path stroke="rgba(239,207,73,0.3137254901960784)" d="M269 39h1M204 116h1M307 116h1M482 227h1M403 304h1" />
<path stroke="rgba(239,207,74,0.792156862745098)" d="M242 40h1M204 117h1M45 242h1M124 319h1M207 441h1M101 479h1" />
<path stroke="rgba(240,205,74,0.807843137254902)" d="M269 40h1M307 117h1M505 204h1M426 281h1M124 345h1M393 380h1M399 415h1M325 452h1" />
<path stroke="rgba(238,208,77,0.2980392156862745)" d="M241 41h1M308 118h1M28 226h1M107 303h1M118 377h1M399 412h1M405 447h1" />
<path stroke="rgba(238,205,76,0.30196078431372547)" d="M270 41h1M203 118h1M143 177h1M88 185h1M451 189h1M506 197h1M481 228h1M402 305h1M112 412h1M208 441h1M106 447h1M364 473h1M411 482h1" />
<path stroke="rgba(239,206,74,0.788235294117647)" d="M241 42h1M203 119h1M6 204h1M85 281h1M107 444h1M188 451h1M410 479h1M110 492h1" />
<path stroke="rgba(240,206,73,0.803921568627451)" d="M270 42h1M308 119h1M387 345h1M344 462h1" />
<path stroke="rgba(241,206,73,0.28627450980392155)" d="M240 43h1M271 43h1M202 120h1M309 120h1M108 304h1" />
<path stroke="rgba(239,207,75,0.7647058823529411)" d="M240 44h1M463 245h1M384 322h1" />
<path stroke="rgba(238,207,75,0.7843137254901961)" d="M271 44h1M113 409h1M404 444h1" />
<path stroke="rgba(240,210,77,0.27058823529411763)" d="M239 45h1M441 267h1M113 406h1M404 441h1" />
<path stroke="rgba(240,211,76,0.27450980392156865)" d="M272 45h1M201 122h1M310 122h1M107 441h1M410 476h1" />
<path stroke="rgba(239,206,74,0.7607843137254902)" d="M239 46h1M201 123h1M502 207h1M423 284h1M304 441h1M102 473h1M401 492h1" />
<path stroke="rgba(240,206,73,0.7764705882352941)" d="M272 46h1M310 123h1M7 205h1M86 282h1M125 339h1M392 374h1M228 430h1M150 471h1" />
<path stroke="rgba(243,208,73,0.25882352941176473)" d="M238 47h1M311 124h1M479 230h1M400 307h1M170 461h1" />
<path stroke="rgba(243,209,72,0.2627450980392157)" d="M273 47h1M200 124h1M440 268h1M386 336h1M392 371h1M189 451h1" />
<path stroke="rgba(239,207,74,0.7529411764705882)" d="M238 48h1M200 125h1M120 368h1M397 403h1M403 438h1M342 461h1" />
<path stroke="rgba(239,206,74,0.7686274509803922)" d="M273 48h1M202 121h1M311 125h1M160 175h1M379 179h1M434 187h1M43 192h1M503 206h1M424 283h1M209 440h1M190 450h1M112 491h1" />
<path stroke="rgba(242,207,73,0.23137254901960785)" d="M237 49h1M199 126h1M72 269h1M385 330h1M322 451h1" />
<path stroke="rgba(242,206,76,0.24705882352941178)" d="M274 49h1M312 126h1M70 267h1M102 470h1M132 481h1" />
<path stroke="rgba(240,206,75,0.7372549019607844)" d="M237 50h1M9 207h1M88 284h1M302 440h1" />
<path stroke="rgba(240,206,74,0.7411764705882353)" d="M274 50h1M199 127h1M312 127h1M48 245h1M127 322h1M283 430h1M380 481h1" />
<path stroke="rgba(237,210,76,0.2235294117647059)" d="M236 51h1M198 128h1M438 270h1M263 420h1" />
<path stroke="rgba(238,209,75,0.23921568627450981)" d="M275 51h1M313 128h1M71 268h1M120 365h1M397 400h1M403 435h1M191 450h1M113 491h1" />
<path stroke="rgba(238,205,74,0.7254901960784313)" d="M236 52h1M313 129h1M10 208h1M89 285h1M115 397h1M402 432h1" />
<path stroke="rgba(239,207,74,0.7294117647058823)" d="M275 52h1M198 129h1M109 432h1M408 467h1" />
<path stroke="rgba(241,204,74,0.21568627450980393)" d="M235 53h1M477 232h1M398 309h1M109 429h1M408 464h1M379 481h1" />
<path stroke="rgba(238,204,72,0.23529411764705882)" d="M276 53h1M314 130h1M362 176h1M60 189h1M479 193h1M5 197h1M32 230h1M111 307h1M126 330h1M391 365h1M303 441h1M400 492h1" />
<path stroke="rgba(240,207,74,0.7137254901960784)" d="M235 54h1M276 54h1M197 131h1M314 131h1M421 286h1M384 327h1" />
<path stroke="rgba(244,204,81,0.19607843137254902)" d="M234 55h1M34 232h1M113 309h1M231 429h1M153 470h1" />
<path stroke="rgba(239,206,74,0.996078431372549)" d="M235 55h1M234 57h1M278 59h1M279 61h1M197 132h1M196 134h1M195 136h1M316 136h1M317 138h1M148 177h1M93 185h1M31 194h1M24 221h1M487 221h1M486 222h1M485 223h1M63 259h1M448 259h1M447 260h1M446 261h1M103 298h1M408 298h1M407 299h1M127 329h1M250 418h1M110 428h1M231 428h1M401 428h1M282 429h1M301 439h1M320 449h1M172 459h1M104 463h1M407 463h1M153 469h1M134 479h1M379 480h1M398 490h1" />
<path stroke="rgba(245,212,80,0.21176470588235294)" d="M277 55h1M315 132h1M437 271h1M115 394h1M402 429h1M301 440h1M398 491h1" />
<path stroke="rgba(239,206,74,0.6980392156862745)" d="M234 56h1M50 247h1M116 391h1M110 426h1M407 461h1" />
<path stroke="rgba(239,207,74,0.7019607843137254)" d="M277 56h1M196 133h1M315 133h1M132 179h1M407 183h1M77 187h1M462 191h1M459 249h1M251 418h1M321 450h1M173 459h1M104 461h1M399 491h1M413 496h1" />
<path stroke="rgba(239,208,78,0.19215686274509805)" d="M233 57h1M195 134h1M74 271h1M212 439h1M134 480h1M98 493h1" />
<path stroke="rgba(245,211,72,0.20784313725490197)" d="M278 57h1M316 134h1M476 233h1M397 310h1M127 324h1M121 359h1M396 394h1M320 450h1" />
<path stroke="rgba(240,205,74,0.6862745098039216)" d="M233 58h1M316 135h1M51 248h1" />
<path stroke="rgba(239,207,75,0.6901960784313725)" d="M278 58h1M195 135h1M1 198h1M510 198h1M90 286h1M389 356h1" />
<path stroke="rgba(243,214,75,0.17254901960784313)" d="M232 59h1M281 63h1M319 140h1M474 235h1M395 312h1M261 419h1M339 460h1" />
<path stroke="rgba(239,206,74,0.9921568627450981)" d="M233 59h1M232 61h1M231 63h1M280 63h1M194 138h1M193 140h1M318 140h1M141 178h1M86 186h1M24 195h1M25 222h1M26 223h1M64 260h1M65 261h1M104 299h1M406 300h1M122 358h1M389 358h1M116 393h1M395 393h1M252 417h1M261 418h1M212 438h1M193 448h1M174 458h1M339 459h1M155 468h1M115 489h1" />
<path stroke="rgba(240,205,75,0.2)" d="M279 59h1M196 132h1M317 136h1M170 173h1M163 174h1M156 175h1M369 177h1M376 178h1M383 179h1M115 181h1M108 182h1M101 183h1M94 184h1M424 185h1M431 186h1M438 187h1M53 190h1M46 191h1M39 192h1M486 194h1M493 195h1M500 196h1M73 270h1M250 419h1" />
<path stroke="rgba(240,206,74,0.6745098039215687)" d="M232 60h1M279 60h1M317 137h1M105 455h1M412 490h1" />
<path stroke="rgba(242,206,78,0.16470588235294117)" d="M231 61h1M473 236h1M394 313h1M377 480h1M99 487h1" />
<path stroke="rgba(238,205,72,0.1803921568627451)" d="M280 61h1M318 138h1M475 234h1M396 311h1M122 353h1M395 388h1M174 459h1" />
<path stroke="rgba(238,208,75,0.6627450980392157)" d="M231 62h1M280 62h1M193 139h1M318 139h1M458 250h1M123 350h1M394 385h1" />
<path stroke="rgba(236,205,80,0.1607843137254902)" d="M230 63h1M192 140h1M36 234h1M115 311h1M299 439h1M105 452h1M412 487h1M396 490h1" />
<path stroke="rgba(241,207,74,0.6470588235294118)" d="M230 64h1M319 141h1M496 213h1M417 290h1M100 484h1" />
<path stroke="rgba(241,207,75,0.6509803921568628)" d="M281 64h1M192 141h1" />
<path stroke="rgba(241,213,82,0.1450980392156863)" d="M229 65h1M284 69h1M191 142h1M322 146h1M117 313h1M214 438h1M136 479h1" />
<path stroke="rgba(239,206,74,0.984313725490196)" d="M230 65h1M229 67h1M191 144h1M190 146h1M384 180h1M72 188h1M501 197h1M27 224h1M66 262h1M67 263h1M106 301h1M388 352h1M117 387h1M394 387h1M259 417h1M111 422h1M400 422h1M233 427h1M318 448h1M105 457h1M406 457h1M337 458h1M356 468h1" />
<path stroke="rgba(239,206,74,0.9882352941176471)" d="M281 65h1M282 67h1M283 69h1M192 142h1M319 142h1M320 144h1M321 146h1M134 179h1M79 187h1M17 196h1M484 224h1M483 225h1M445 262h1M444 263h1M443 264h1M105 300h1M405 301h1M404 302h1M280 428h1M299 438h1M358 469h1M377 479h1M396 489h1M99 492h1M412 492h1" />
<path stroke="rgba(242,204,82,0.1568627450980392)" d="M282 65h1M320 142h1M76 273h1M111 417h1M318 449h1M406 452h1" />
<path stroke="rgba(239,206,75,0.6352941176470588)" d="M229 66h1M282 66h1M320 143h1M373 178h1M104 183h1M49 191h1M490 195h1M124 344h1M393 379h1M234 427h1M338 459h1" />
<path stroke="rgba(240,204,80,0.13725490196078433)" d="M228 67h1M190 144h1M176 172h1M335 172h1M511 199h1M432 276h1M195 448h1" />
<path stroke="rgba(248,209,78,0.15294117647058825)" d="M283 67h1M37 235h1M77 274h1M116 312h1M123 347h1M117 382h1M400 417h1M337 459h1" />
<path stroke="rgba(240,205,75,0.6235294117647059)" d="M228 68h1M283 68h1M190 145h1M321 145h1" />
<path stroke="rgba(246,213,74,0.12156862745098039)" d="M227 69h1M324 150h1M0 199h1M39 237h1M79 276h1M118 314h1M124 341h1M393 376h1M278 428h1M375 479h1M98 499h1M413 499h1" />
<path stroke="rgba(239,206,74,0.9803921568627451)" d="M228 69h1M284 71h1M285 73h1M322 148h1M323 150h1M336 173h1M391 181h1M446 189h1M28 225h1M482 226h1M68 264h1M107 302h1M123 352h1M214 437h1M195 447h1M136 478h1M117 488h1" />
<path stroke="rgba(240,207,74,0.6078431372549019)" d="M227 70h1M322 147h1M495 214h1M416 291h1M119 373h1M398 408h1" />
<path stroke="rgba(240,207,75,0.611764705882353)" d="M284 70h1M189 147h1M113 408h1M404 443h1" />
<path stroke="rgba(238,204,85,0.11764705882352941)" d="M226 71h1M188 148h1M40 238h1M119 315h1M387 341h1M297 438h1M316 448h1M394 489h1" />
<path stroke="rgba(239,206,74,0.9764705882352941)" d="M227 71h1M189 148h1M188 150h1M343 174h1M398 182h1M453 190h1M481 227h1M442 265h1M403 303h1M402 304h1M235 426h1M216 436h1M176 457h1M157 467h1M138 477h1" />
<path stroke="rgba(247,216,77,0.12941176470588237)" d="M285 71h1M323 148h1M510 200h1M431 277h1M112 411h1M235 427h1M106 446h1M157 468h1M411 481h1" />
<path stroke="rgba(238,206,75,0.596078431372549)" d="M226 72h1M285 72h1M323 149h1M494 215h1M415 292h1" />
<path stroke="rgba(237,202,70,0.11372549019607843)" d="M225 73h1M187 150h1M1 200h1M80 277h1M335 458h1" />
<path stroke="rgba(239,206,74,0.9725490196078431)" d="M226 73h1M286 75h1M324 152h1M350 175h1M405 183h1M460 191h1M3 198h1M508 198h1M29 226h1M480 228h1M441 266h1M108 303h1M401 305h1M254 416h1M278 427h1M297 437h1M106 451h1M405 451h1M375 478h1M100 486h1M411 486h1M394 488h1M98 498h1" />
<path stroke="rgba(239,207,79,0.12549019607843137)" d="M286 73h1M78 275h1M118 376h1M399 411h1M259 418h1M405 446h1M356 469h1" />
<path stroke="rgba(241,205,75,0.5843137254901961)" d="M225 74h1M286 74h1M187 151h1M324 151h1M493 216h1M55 252h1M414 293h1M114 402h1M108 437h1M409 472h1" />
<path stroke="rgba(244,203,71,0.09803921568627451)" d="M224 75h1M186 152h1M327 156h1M473 192h1M468 241h1M389 318h1M113 405h1M404 440h1M197 447h1M100 498h1" />
<path stroke="rgba(239,206,74,0.9647058823529412)" d="M225 75h1M224 77h1M187 152h1M186 154h1M65 189h1M10 197h1M31 228h1M70 266h1M110 305h1M124 346h1M118 381h1M276 426h1M354 467h1M373 477h1M413 498h1" />
<path stroke="rgba(245,209,81,0.10980392156862745)" d="M287 75h1M325 152h1M470 239h1M391 316h1M257 417h1M354 468h1" />
<path stroke="rgba(239,207,75,0.5686274509803921)" d="M224 76h1M325 153h1M346 174h1M138 178h1M401 182h1M21 195h1M17 215h1M96 292h1M277 427h1M120 487h1" />
<path stroke="rgba(239,206,73,0.5725490196078431)" d="M287 76h1M186 153h1M56 253h1M385 332h1" />
<path stroke="rgba(244,212,74,0.09411764705882353)" d="M223 77h1M185 154h1M418 184h1M2 201h1M41 239h1M81 278h1M120 316h1M125 335h1M119 370h1M398 405h1M178 457h1M159 467h1" />
<path stroke="rgba(238,206,74,0.9686274509803922)" d="M287 77h1M288 79h1M325 154h1M326 156h1M127 180h1M467 192h1M30 227h1M69 265h1M109 304h1M387 346h1M393 381h1M112 416h1M257 416h1M399 416h1M316 447h1M335 457h1" />
<path stroke="rgba(236,217,84,0.10588235294117647)" d="M288 77h1M326 154h1M509 201h1M430 278h1M276 427h1M101 475h1M138 478h1" />
<path stroke="rgba(240,208,75,0.5568627450980392)" d="M223 78h1M288 78h1M326 155h1M18 216h1M97 293h1M256 416h1M109 431h1M408 466h1" />
<path stroke="rgba(254,221,88,0.09019607843137255)" d="M222 79h1M184 156h1M42 240h1M121 317h1M386 335h1M392 370h1M237 426h1M140 477h1" />
<path stroke="rgba(239,206,74,0.9607843137254902)" d="M223 79h1M185 156h1M120 181h1M479 229h1M440 267h1M439 268h1M400 306h1M197 446h1M119 487h1" />
<path stroke="rgba(235,215,78,0.10196078431372549)" d="M289 79h1M121 180h1M66 188h1M508 202h1M469 240h1M429 279h1M390 317h1M216 437h1M107 440h1M410 475h1M119 488h1" />
<path stroke="rgba(238,205,73,0.5450980392156862)" d="M222 80h1M289 80h1M184 157h1M327 157h1M384 326h1M390 361h1" />
<path stroke="rgba(254,201,93,0.07450980392156863)" d="M221 81h1M220 83h1M182 160h1M466 243h1M427 281h1M387 320h1M403 434h1M352 467h1M409 469h1" />
<path stroke="rgba(239,206,75,0.9529411764705882)" d="M222 81h1M184 158h1M113 182h1M32 229h1M71 267h1M111 306h1M398 410h1M237 425h1M218 435h1M404 445h1M140 476h1M101 480h1" />
<path stroke="rgba(239,206,74,0.9568627450980393)" d="M289 81h1M290 83h1M327 158h1M328 160h1M175 173h1M58 190h1M478 230h1M438 269h1M399 307h1M178 456h1M159 466h1M410 480h1M100 497h1" />
<path stroke="rgba(243,220,81,0.08627450980392157)" d="M290 81h1M328 158h1M3 202h1M43 241h1M82 279h1M122 318h1M218 436h1M121 487h1" />
<path stroke="rgba(241,207,75,0.5294117647058824)" d="M221 82h1M328 159h1M104 460h1M413 495h1" />
<path stroke="rgba(238,206,73,0.5333333333333333)" d="M290 82h1M183 159h1M172 173h1M353 175h1M360 176h1M367 177h1M131 179h1M124 180h1M117 181h1M408 183h1M415 184h1M422 185h1M76 187h1M69 188h1M62 189h1M55 190h1M463 191h1M470 192h1M477 193h1M14 196h1M7 197h1M491 218h1M452 256h1M451 257h1M412 295h1M238 425h1M275 426h1M219 435h1M296 437h1M200 445h1M198 446h1M315 447h1M179 456h1M334 457h1M160 466h1M353 467h1M141 476h1M372 477h1M374 478h1M122 486h1M393 488h1M98 495h1M101 497h1M412 498h1" />
<path stroke="rgba(239,205,74,0.9490196078431372)" d="M221 83h1M183 160h1M168 174h1M51 191h1M33 230h1M72 268h1M112 307h1M392 375h1M113 410h1M295 436h1M107 445h1M199 445h1M121 486h1M392 487h1" />
<path stroke="rgba(254,206,84,0.08235294117647059)" d="M291 83h1M329 160h1M507 203h1M428 280h1M127 323h1M384 323h1M295 437h1M373 478h1M392 488h1" />
<path stroke="rgba(241,208,73,0.5176470588235295)" d="M220 84h1M291 84h1M329 161h1M58 255h1M389 355h1" />
<path stroke="rgba(239,207,95,0.06274509803921569)" d="M219 85h1M294 89h1M181 162h1M332 166h1M93 184h1M5 204h1M45 243h1M84 281h1M124 320h1M385 329h1M180 456h1M161 466h1" />
<path stroke="rgba(240,206,74,0.9372549019607843)" d="M220 85h1M182 162h1M181 164h1M331 166h1M412 184h1M476 232h1M436 271h1M397 309h1M274 425h1M293 435h1M371 476h1" />
<path stroke="rgba(239,206,74,0.9450980392156862)" d="M291 85h1M329 162h1M106 183h1M73 269h1M386 340h1M119 375h1M314 446h1M333 456h1M411 497h1" />
<path stroke="rgba(254,226,84,0.07058823529411765)" d="M292 85h1M330 162h1M505 205h1M426 282h1M391 364h1M397 399h1M274 426h1M108 434h1M293 436h1M102 469h1M371 477h1M97 499h1M414 499h1" />
<path stroke="rgba(239,207,73,0.5058823529411764)" d="M219 86h1M292 86h1M330 163h1M99 489h1" />
<path stroke="rgba(239,206,74,0.9333333333333333)" d="M219 87h1M357 176h1M364 177h1M371 178h1M378 179h1M419 185h1M426 186h1M433 187h1M474 193h1M481 194h1M488 195h1M475 233h1M435 272h1M396 310h1M312 445h1M409 474h1M390 486h1M102 496h1" />
<path stroke="rgba(239,206,74,0.9411764705882353)" d="M292 87h1M293 89h1M330 164h1M161 175h1M44 192h1M477 231h1M437 270h1M398 308h1M125 340h1M352 466h1" />
<path stroke="rgba(240,210,75,0.06666666666666667)" d="M293 87h1M331 164h1M169 173h1M162 174h1M155 175h1M114 181h1M107 182h1M100 183h1M59 189h1M52 190h1M45 191h1M38 192h1M4 197h1M4 203h1M44 242h1M465 244h1M83 280h1M123 319h1M386 321h1M120 364h1M114 399h1M199 446h1M390 487h1M102 497h1" />
<path stroke="rgba(240,206,76,0.49411764705882355)" d="M218 88h1M293 88h1M331 165h1M123 349h1M394 384h1" />
<path stroke="rgba(239,206,74,0.9098039215686274)" d="M296 95h1M177 172h1M334 172h1M473 235h1M394 312h1M350 465h1" />
<path stroke="rgba(255,204,102,0.0392156862745098)" d="M297 95h1M439 187h1M494 195h1M8 207h1M9 208h1M48 246h1M87 284h1M88 285h1M310 445h1M407 496h1" />
<path stroke="rgba(239,206,74,0.8509803921568627)" d="M209 107h1M469 239h1M390 316h1M268 422h1M346 463h1" />
<path stroke="rgba(240,206,74,0.7803921568627451)" d="M309 121h1M46 243h1M125 320h1M119 374h1M398 409h1M247 420h1M169 461h1" />
<path stroke="rgba(241,209,77,0.2196078431372549)" d="M197 130h1M282 430h1M103 464h1M360 471h1" />
<path stroke="rgba(244,206,81,0.1843137254901961)" d="M194 136h1M75 272h1M116 388h1M401 423h1M193 449h1M407 458h1" />
<path stroke="rgba(240,206,75,0.6784313725490196)" d="M194 137h1M52 249h1M99 490h1" />
<path stroke="rgba(237,213,71,0.16862745098039217)" d="M193 138h1M149 176h1M390 180h1M445 188h1M32 193h1M434 274h1M280 429h1M358 470h1" />
<path stroke="rgba(239,208,75,0.6392156862745098)" d="M191 143h1M53 250h1M118 379h1M399 414h1M405 449h1" />
<path stroke="rgba(248,208,80,0.14901960784313725)" d="M321 144h1M38 236h1M388 347h1M394 382h1M233 428h1M155 469h1" />
<path stroke="rgba(240,210,75,0.13333333333333333)" d="M189 146h1M342 173h1M349 174h1M356 175h1M142 177h1M135 178h1M128 179h1M397 181h1M404 182h1M411 183h1M87 185h1M80 186h1M73 187h1M452 189h1M459 190h1M466 191h1M25 194h1M18 195h1M11 196h1M507 197h1M471 238h1M392 315h1M254 417h1M176 458h1M100 481h1" />
<path stroke="rgba(238,208,73,0.6)" d="M188 149h1M339 173h1M159 175h1M152 176h1M145 177h1M380 179h1M387 180h1M394 181h1M97 184h1M90 185h1M83 186h1M435 187h1M442 188h1M449 189h1M456 190h1M42 192h1M35 193h1M28 194h1M497 196h1M504 197h1M386 338h1M258 417h1M260 418h1M236 426h1M279 428h1M217 436h1M215 437h1M298 438h1M196 447h1M317 448h1M177 457h1M336 458h1M158 467h1M355 468h1M357 469h1M139 477h1M137 478h1M376 479h1M118 488h1M395 489h1M99 498h1" />
<path stroke="rgba(240,208,73,0.5607843137254902)" d="M185 155h1M57 254h1M255 416h1M103 466h1" />
<path stroke="rgba(242,204,89,0.0784313725490196)" d="M183 158h1M506 204h1M467 242h1M388 319h1M314 447h1M333 457h1M411 498h1" />
<path stroke="rgba(241,205,76,0.5215686274509804)" d="M182 161h1M122 355h1M395 390h1M401 425h1" />
<path stroke="rgba(239,207,76,0.5098039215686274)" d="M181 163h1M19 217h1M98 294h1" />
<path stroke="rgba(240,208,74,0.4980392156862745)" d="M180 165h1M490 219h1M411 296h1M117 384h1M400 419h1" />
<path stroke="rgba(240,207,74,0.48627450980392156)" d="M179 167h1" />
<path stroke="rgba(241,206,73,0.3686274509803922)" d="M171 173h1M368 177h1M116 181h1M423 185h1M54 190h1M445 263h1M225 432h1M347 464h1" />
<path stroke="rgba(240,207,75,0.6666666666666666)" d="M173 173h1M166 174h1M352 175h1M359 176h1M366 177h1M125 180h1M118 181h1M111 182h1M414 184h1M421 185h1M428 186h1M70 188h1M63 189h1M56 190h1M469 192h1M476 193h1M483 194h1M15 196h1M8 197h1M117 385h1M253 417h1M262 419h1M400 420h1M232 428h1M281 429h1M213 438h1M300 439h1M194 448h1M319 449h1M175 458h1M340 460h1M156 468h1M154 469h1M359 470h1M135 479h1M378 480h1M116 489h1M397 490h1" />
<path stroke="rgba(239,207,74,0.8666666666666667)" d="M337 173h1M344 174h1M147 177h1M140 178h1M133 179h1M385 180h1M392 181h1M399 182h1M406 183h1M92 185h1M85 186h1M78 187h1M447 189h1M454 190h1M461 191h1M37 193h1M30 194h1M23 195h1M502 197h1M40 237h1M119 314h1M122 357h1M395 392h1M401 427h1M289 433h1M367 474h1" />
<path stroke="rgba(240,207,75,0.7333333333333333)" d="M338 173h1M345 174h1M153 176h1M146 177h1M139 178h1M386 180h1M393 181h1M400 182h1M98 184h1M91 185h1M84 186h1M441 188h1M448 189h1M455 190h1M36 193h1M29 194h1M22 195h1M496 196h1M503 197h1M49 246h1M249 419h1M230 429h1M211 439h1M192 449h1M171 460h1M103 467h1M152 470h1M133 480h1M114 490h1" />
<path stroke="rgba(241,209,75,0.43529411764705883)" d="M340 173h1M395 181h1M82 186h1M457 190h1M27 194h1M125 337h1M392 372h1M164 464h1M408 496h1" />
<path stroke="rgba(240,206,75,0.26666666666666666)" d="M341 173h1M348 174h1M355 175h1M136 178h1M129 179h1M122 180h1M396 181h1M403 182h1M410 183h1M417 184h1M81 186h1M74 187h1M67 188h1M458 190h1M465 191h1M472 192h1M26 194h1M19 195h1M12 196h1M480 229h1M401 306h1M125 336h1M119 371h1M398 406h1M265 421h1M284 431h1M286 432h1M305 442h1M324 452h1M343 462h1M362 472h1M381 482h1M383 483h1M111 492h1M402 493h1" />
<path stroke="rgba(240,207,75,0.3333333333333333)" d="M164 174h1M157 175h1M150 176h1M375 178h1M382 179h1M389 180h1M109 182h1M102 183h1M95 184h1M430 186h1M437 187h1M444 188h1M47 191h1M40 192h1M33 193h1M485 194h1M492 195h1M499 196h1M246 421h1M267 422h1M269 423h1M227 431h1M288 433h1M206 442h1M307 443h1M187 452h1M105 453h1M326 453h1M168 462h1M345 463h1M149 472h1M366 474h1M130 482h1M128 483h1M385 484h1M412 488h1M109 493h1M404 494h1" />
<path stroke="rgba(239,205,75,0.5019607843137255)" d="M165 174h1M110 182h1M429 186h1M484 194h1M59 256h1M111 419h1M294 436h1M105 454h1M406 454h1M181 455h1M391 487h1M412 489h1M103 496h1" />
<path stroke="rgba(239,206,74,0.8235294117647058)" d="M4 202h1M83 279h1M365 473h1M129 482h1" />
<path stroke="rgba(239,206,74,0.796078431372549)" d="M5 203h1M464 244h1M84 280h1M385 321h1M285 431h1M382 482h1" />
<path stroke="rgba(239,207,74,0.8156862745098039)" d="M506 203h1M306 442h1M106 450h1M411 485h1" />
<path stroke="rgba(240,205,75,0.7450980392156863)" d="M8 206h1M87 283h1M385 333h1M264 420h1M361 471h1" />
<path stroke="rgba(240,206,73,0.7490196078431373)" d="M501 208h1M422 285h1M126 333h1M391 368h1" />
<path stroke="rgba(239,206,73,0.6941176470588235)" d="M11 209h1M122 356h1M395 391h1M401 426h1" />
<path stroke="rgba(241,206,75,0.7176470588235294)" d="M500 209h1M127 327h1M390 362h1" />
<path stroke="rgba(240,208,73,0.6823529411764706)" d="M12 210h1M91 287h1" />
<path stroke="rgba(239,205,75,0.7058823529411765)" d="M499 210h1M420 287h1M98 496h1" />
<path stroke="rgba(239,205,76,0.6431372549019608)" d="M13 211h1M92 288h1M112 414h1M106 449h1M411 484h1" />
<path stroke="rgba(240,207,76,0.6705882352941176)" d="M498 211h1M419 288h1M111 420h1M406 455h1" />
<path stroke="rgba(239,207,74,0.6313725490196078)" d="M14 212h1M93 289h1M387 344h1" />
<path stroke="rgba(238,206,74,0.6588235294117647)" d="M497 212h1M418 289h1M388 350h1" />
<path stroke="rgba(240,208,74,0.6196078431372549)" d="M15 213h1M94 290h1M101 478h1" />
<path stroke="rgba(239,208,74,0.5803921568627451)" d="M16 214h1M95 291h1M120 367h1M397 402h1M403 437h1" />
<path stroke="rgba(238,205,75,0.5411764705882353)" d="M492 217h1M413 294h1" />
<path stroke="rgba(239,206,73,0.45098039215686275)" d="M22 220h1M101 297h1M101 477h1" />
<path stroke="rgba(240,208,76,0.40784313725490196)" d="M23 221h1M102 298h1M126 331h1M391 366h1" />
<path stroke="rgba(242,207,73,0.396078431372549)" d="M24 222h1M103 299h1" />
<path stroke="rgba(239,208,75,0.3843137254901961)" d="M25 223h1M407 300h1M115 395h1M402 430h1" />
<path stroke="rgba(240,208,75,0.34509803921568627)" d="M26 224h1M105 301h1" />
<path stroke="rgba(241,209,75,0.37254901960784315)" d="M485 224h1M406 301h1" />
<path stroke="rgba(239,205,77,0.3215686274509804)" d="M483 226h1M404 303h1M123 348h1M394 383h1" />
<path stroke="rgba(241,210,72,0.2901960784313726)" d="M29 227h1M387 342h1" />
<path stroke="rgba(244,208,75,0.2784313725490196)" d="M30 228h1M109 305h1M101 476h1" />
<path stroke="rgba(242,209,74,0.24313725490196078)" d="M31 229h1M110 306h1M114 400h1M108 435h1M210 440h1M409 470h1" />
<path stroke="rgba(240,210,78,0.20392156862745098)" d="M33 231h1M436 272h1M112 308h1M384 324h1M390 359h1M172 460h1" />
<path stroke="rgba(237,211,79,0.22745098039215686)" d="M478 231h1M399 308h1M341 461h1" />
<path stroke="rgba(239,207,74,0.18823529411764706)" d="M35 233h1M114 310h1M110 423h1M104 458h1M115 490h1M413 493h1" />
<path stroke="rgba(247,205,77,0.1411764705882353)" d="M472 237h1M433 275h1M393 314h1M117 489h1" />
<path stroke="rgba(240,206,75,0.8117647058823529)" d="M466 242h1M427 280h1M387 319h1M118 380h1M112 415h1M405 450h1M403 493h1" />
<path stroke="rgba(239,207,75,0.7725490196078432)" d="M47 244h1M126 321h1M386 339h1M131 481h1" />
<path stroke="rgba(239,206,75,0.7568627450980392)" d="M462 246h1M114 403h1M108 438h1M323 451h1M409 473h1" />
<path stroke="rgba(238,206,73,0.7215686274509804)" d="M461 247h1M121 362h1M396 397h1" />
<path stroke="rgba(240,207,76,0.7098039215686275)" d="M460 248h1" />
<path stroke="rgba(239,207,73,0.6274509803921569)" d="M54 251h1" />
<path stroke="rgba(241,206,73,0.6549019607843137)" d="M457 251h1" />
<path stroke="rgba(240,206,76,0.615686274509804)" d="M456 252h1M107 443h1M410 478h1" />
<path stroke="rgba(238,205,76,0.6039215686274509)" d="M455 253h1M125 338h1M392 373h1" />
<path stroke="rgba(241,206,74,0.592156862745098)" d="M454 254h1" />
<path stroke="rgba(240,207,76,0.5490196078431373)" d="M453 255h1M127 326h1M121 361h1M396 396h1" />
<path stroke="rgba(240,206,73,0.49019607843137253)" d="M450 258h1M388 349h1" />
<path stroke="rgba(242,206,75,0.32941176470588235)" d="M67 264h1M111 418h1M406 453h1" />
<path stroke="rgba(238,207,75,0.3568627450980392)" d="M444 264h1M104 300h1M116 389h1M110 424h1M407 459h1" />
<path stroke="rgba(238,207,78,0.29411764705882354)" d="M68 265h1M124 342h1M393 377h1" />
<path stroke="rgba(239,207,78,0.3176470588235294)" d="M443 265h1M388 348h1" />
<path stroke="rgba(237,205,74,0.2823529411764706)" d="M69 266h1" />
<path stroke="rgba(241,209,75,0.3058823529411765)" d="M442 266h1M100 482h1" />
<path stroke="rgba(239,211,78,0.2549019607843137)" d="M439 269h1M248 420h1" />
<path stroke="rgba(238,204,79,0.17647058823529413)" d="M435 273h1M389 353h1M252 418h1" />
<path stroke="rgba(239,206,76,0.5764705882352941)" d="M126 332h1M391 367h1" />
<path stroke="rgba(242,205,73,0.4627450980392157)" d="M387 343h1" />
<path stroke="rgba(238,206,75,0.4117647058823529)" d="M120 366h1M397 401h1M403 436h1" />
<path stroke="rgba(241,207,74,0.5254901960784314)" d="M116 390h1M110 425h1M407 460h1" />
<path stroke="rgba(240,206,74,0.5529411764705883)" d="M115 396h1M402 431h1" />
<path stroke="rgba(238,208,75,0.4745098039215686)" d="M112 413h1M106 448h1M411 483h1" />
<path stroke="rgba(239,207,79,0.25098039215686274)" d="M229 430h1M151 471h1" />
<path stroke="rgba(239,208,76,0.4470588235294118)" d="M107 442h1M410 477h1" />
<path stroke="rgba(241,207,76,0.5882352941176471)" d="M102 472h1" />
</svg>